<svg width="30" height="30" viewBox="0 0 30 30" fill="none" xmlns="http://www.w3.org/2000/svg">
<rect width="30" height="30" rx="8" fill="#656EEB"/>
<g clip-path="url(#clip0_284_973)">
<path d="M13.8603 16.5099L13.3738 20.4406L13.3738 20.4406L13.3735 20.4429C13.3441 20.7138 13.4966 20.9774 13.7559 21.0749C13.8807 21.1245 14.0187 21.1302 14.1472 21.091C14.276 21.0517 14.3876 20.9696 14.4635 20.8582C14.4636 20.8581 14.4637 20.8579 14.4639 20.8577L19.4019 13.7335L19.4019 13.7335L19.4028 13.7322C19.5262 13.55 19.5465 13.3155 19.438 13.1153C19.3876 13.0181 19.3113 12.9367 19.2177 12.8798C19.1236 12.8228 19.0156 12.7928 18.9056 12.7931H18.9059V12.9431L18.9053 12.7931L13.8603 16.5099ZM13.8603 16.5099H11.7492C11.5577 16.5099 11.3768 16.4196 11.2629 16.2576C11.1507 16.0983 11.1196 15.8997 11.1856 15.7131L11.1854 15.7136L11.3272 15.7627L11.1858 15.7126L13.3989 9.33357L13.399 9.33318C13.4825 9.09467 13.7046 8.93192 13.9627 8.93192H17.0876C17.2873 8.93192 17.4711 9.03434 17.5829 9.19315C17.6976 9.35612 17.7218 9.5673 17.6439 9.75401L17.6442 9.7532L17.5051 9.69702L17.6434 9.75503L16.4164 12.7931M13.8603 16.5099L16.4164 12.7931M16.4164 12.7931H16.2547L16.3559 12.9431L16.4164 12.7931ZM21.8644 20.795L21.8641 20.7953C20.8505 21.8536 19.5871 22.637 18.1926 23.0749L18.7058 22.1194L18.777 21.987L18.6444 21.9161L17.8542 21.4941L17.7222 21.4236L17.6514 21.5553L16.5067 23.6831C16.5066 23.6832 16.5066 23.6833 16.5065 23.6834C16.3499 23.9729 16.4598 24.3312 16.7446 24.4914L16.7459 24.4921L18.8516 25.6505L18.9832 25.7229L19.0554 25.5912L19.4864 24.8055L19.5586 24.6739L19.427 24.6018L18.6652 24.1843C20.1938 23.6843 21.5771 22.8198 22.7268 21.632L22.7271 21.6317C24.8461 19.4306 25.8619 16.414 25.5203 13.353L25.5037 13.2041L25.3548 13.2206L24.4613 13.3194L24.3119 13.3359L24.3287 13.4853C24.6336 16.189 23.7323 18.8564 21.8644 20.795ZM10.2476 7.35489C13.5779 4.75751 18.3083 4.96561 21.4247 7.78702H20.428H20.278V7.93702V8.83498V8.98498H20.428H22.821C23.1508 8.98498 23.42 8.71578 23.42 8.386V5.96151V5.81151H23.27H22.3721H22.2221V5.96151V6.8953C18.6778 3.69204 13.3038 3.45289 9.51087 6.40891L9.39262 6.50107L9.48471 6.61937L10.037 7.32876L10.1292 7.44723L10.2476 7.35489ZM5.86413 12.1033C5.03586 15.554 6.0222 19.214 8.57211 21.7639C9.35126 22.5431 10.2446 23.1857 11.2202 23.669L11.355 23.7358L11.4214 23.6008L11.8165 22.7971L11.8826 22.6625L11.7481 22.5963C10.8879 22.1728 10.1065 21.6079 9.41731 20.9187C7.16697 18.6684 6.29604 15.4379 7.02549 12.3927L7.50011 13.2704L7.57141 13.4023L7.7033 13.3311L8.49351 12.9045L8.62521 12.8334L8.55442 12.7016L7.41011 10.57C7.41001 10.5698 7.4099 10.5696 7.40979 10.5694C7.37256 10.4989 7.32119 10.4367 7.25887 10.3869C7.19639 10.3369 7.12424 10.3003 7.04697 10.2795L7.00797 10.4244L7.04697 10.2795C6.89351 10.2382 6.73271 10.256 6.59082 10.3329L6.59081 10.3329L6.58963 10.3335L4.4884 11.4964L4.35707 11.5691L4.42984 11.7004L4.86535 12.4861L4.93812 12.6173L5.06935 12.5445L5.86413 12.1033ZM14.5463 15.3029H12.5964L14.3971 10.1254H16.2097L14.982 13.1653L14.9819 13.1653L14.9811 13.1674C14.9109 13.3488 14.9265 13.5594 15.0433 13.7254C15.155 13.8842 15.3388 13.9866 15.5386 13.9866H17.7708L14.8686 18.1719L15.1396 15.9796C15.1396 15.9794 15.1396 15.9793 15.1396 15.9791C15.1505 15.8949 15.1434 15.8093 15.1187 15.728C15.0939 15.6466 15.0521 15.5714 14.996 15.5074C14.9399 15.4433 14.8709 15.392 14.7934 15.3568C14.7159 15.3215 14.6318 15.3032 14.5467 15.3029H14.5463Z" fill="white" stroke="white" stroke-width="0.3"/>
</g>
<defs>
<clipPath id="clip0_284_973">
<rect width="22" height="22" fill="white" transform="translate(4 4)"/>
</clipPath>
</defs>
</svg>
