<svg width="779" height="685" viewBox="0 0 779 685" fill="none" xmlns="http://www.w3.org/2000/svg">
<path d="M195.627 531.112C198.848 531.975 202.159 530.064 203.022 526.843C203.885 523.622 201.974 520.311 198.753 519.448C195.532 518.585 192.221 520.496 191.358 523.717C190.495 526.938 192.406 530.249 195.627 531.112Z" fill="url(#paint0_linear_296_1517)"/>
<path d="M203.545 554.408C203.128 554.296 202.688 554.436 202.439 554.765C201.746 555.68 200.136 557.381 197.916 557.089C194.906 556.694 191.817 554.425 192.601 549.345C193.055 546.39 195.579 538.823 197.612 533.012C196.814 533.056 195.997 532.979 195.184 532.762C193.601 532.337 192.265 531.449 191.28 530.284C188.411 537.423 184.203 548.463 183.979 552.322C183.633 558.206 184.909 562.101 191.245 563.602C197.074 564.982 201.869 560.151 204.221 555.843C204.528 555.282 204.197 554.58 203.546 554.406L203.545 554.408Z" fill="url(#paint1_linear_296_1517)"/>
<path d="M176.272 512.184C176.272 512.184 168.862 509.711 165.066 512.798C162.572 514.828 160.83 517.779 159.928 519.563C159.537 520.334 159.812 521.267 160.482 521.446C160.89 521.556 161.346 521.349 161.631 520.912C162.537 519.526 165.003 516.762 169.711 517.881C168.915 520.466 164.749 533.281 159.28 537.669C153.188 542.562 146.235 546.33 150.885 551.696C155.532 557.062 162.9 550.932 166.426 540.75C167.505 537.634 168.681 534.252 169.792 531.06C171.281 533.566 173.71 535.519 176.748 536.333C181.693 537.658 186.746 535.573 189.42 531.522C189.792 530.805 190.232 529.55 189.844 528.064C189.715 527.568 189.632 527.101 189.575 526.657C189.377 525.568 189.408 524.418 189.714 523.277C190.571 520.079 193.31 517.897 196.421 517.583L176.272 512.184ZM178.407 532.112C174.624 531.098 172.379 527.209 173.393 523.424C174.407 519.641 178.296 517.396 182.081 518.41C185.864 519.424 188.109 523.313 187.095 527.098C186.081 530.881 182.192 533.126 178.407 532.112Z" fill="url(#paint2_linear_296_1517)"/>
<path d="M689.608 460.581C689.796 459.516 689.629 458.388 689.279 457.341L689.239 457.249C688.717 456.058 687.685 455.2 686.917 454.445C686.705 454.21 686.402 454.016 686.19 453.781L695.898 449.525C697.088 449.003 697.654 447.554 697.132 446.363L695.927 443.616L693.92 439.037C693.598 438.304 692.665 438.167 692.185 438.815C691.418 439.806 690.348 440.603 689.077 440.941C686.392 441.791 683.362 440.608 681.923 438.073C680.071 434.845 681.442 430.749 684.831 429.264C685.838 428.822 686.874 428.695 687.768 428.74C688.569 428.826 689.101 428.047 688.78 427.314L686.973 423.193L685.568 419.987C685.046 418.796 683.597 418.231 682.406 418.753L655.938 430.357C654.748 430.879 654.182 432.328 654.704 433.519L656.109 436.724L657.916 440.845C658.197 441.486 659.131 441.623 659.56 441.108C660.223 440.38 661.059 439.795 661.975 439.394C664.986 438.292 668.319 439.669 669.787 442.52C671.284 445.685 669.884 449.465 666.679 450.871C665.855 451.232 664.95 451.41 664.057 451.365C663.295 451.371 662.855 452.11 663.176 452.843L665.063 457.147L666.268 459.895C666.79 461.086 668.239 461.651 669.43 461.129L678.405 457.194C678.434 457.509 678.371 457.864 678.4 458.179C678.344 459.296 678.276 460.636 678.798 461.826L678.959 462.193C679.612 463.435 680.644 464.293 681.961 464.807C683.41 465.373 684.933 465.36 686.307 464.758C687.955 464.035 689.243 462.488 689.608 460.581Z" fill="url(#paint3_linear_296_1517)"/>
<path d="M172.296 230.844L175.296 235.844L180.996 237.144L177.096 241.544L177.696 247.344L172.296 245.044L166.996 247.344L167.496 241.544L163.596 237.144L169.296 235.844L172.296 230.844Z" fill="url(#paint4_linear_296_1517)"/>
<path d="M232.996 28.3125L235.896 33.3125L241.596 34.6125L237.796 38.9125L238.296 44.8125L232.996 42.5125L227.596 44.8125L228.096 38.9125L224.296 34.6125L229.996 33.3125L232.996 28.3125Z" fill="url(#paint5_linear_296_1517)"/>
<path d="M199.096 132.722C199.596 132.922 199.696 133.322 199.696 133.522C199.696 133.722 199.696 134.122 199.196 134.322L181.196 141.622L175.896 137.522L190.996 130.022L199.096 132.722Z" fill="url(#paint6_linear_296_1517)"/>
<path d="M199.096 132.722C199.596 132.922 199.696 133.322 199.696 133.522C199.696 133.722 199.696 134.122 199.196 134.322L181.196 141.622L175.896 137.522L190.996 130.022L199.096 132.722Z" fill="url(#paint7_linear_296_1517)"/>
<path d="M191.796 118.022C191.896 118.122 192.196 118.422 192.096 118.922L189.196 127.522L174.196 135.022L174.196 127.822L190.896 117.922C191.296 117.722 191.596 117.922 191.796 118.022Z" fill="url(#paint8_linear_296_1517)"/>
<path d="M191.796 118.022C191.896 118.122 192.196 118.422 192.096 118.922L189.196 127.522L174.196 135.022L174.196 127.822L190.896 117.922C191.296 117.722 191.596 117.922 191.796 118.022Z" fill="url(#paint9_linear_296_1517)"/>
<path d="M173.996 138.322C175.496 141.922 176.396 145.822 176.396 149.922C176.396 166.022 163.296 179.122 147.196 179.122C131.096 179.122 117.996 166.022 117.996 149.922C117.996 133.822 131.096 120.722 147.196 120.722C158.096 120.722 167.696 126.722 172.696 135.622L163.896 140.022C160.496 134.322 154.296 130.522 147.196 130.522C136.496 130.522 127.796 139.222 127.796 149.922C127.796 160.622 136.496 169.322 147.196 169.322C157.896 169.322 166.596 160.622 166.596 149.922C166.596 147.322 166.096 144.922 165.196 142.622L173.996 138.322Z" fill="url(#paint10_linear_296_1517)"/>
<path d="M173.996 138.322C175.496 141.922 176.396 145.822 176.396 149.922C176.396 166.022 163.296 179.122 147.196 179.122C131.096 179.122 117.996 166.022 117.996 149.922C117.996 133.822 131.096 120.722 147.196 120.722C158.096 120.722 167.696 126.722 172.696 135.622L163.896 140.022C160.496 134.322 154.296 130.522 147.196 130.522C136.496 130.522 127.796 139.222 127.796 149.922C127.796 160.622 136.496 169.322 147.196 169.322C157.896 169.322 166.596 160.622 166.596 149.922C166.596 147.322 166.096 144.922 165.196 142.622L173.996 138.322Z" fill="url(#paint11_linear_296_1517)"/>
<path d="M162.496 143.922C163.196 145.722 163.596 147.722 163.596 149.822C163.596 158.922 156.196 166.222 147.196 166.222C138.096 166.222 130.796 158.822 130.796 149.822C130.796 140.722 138.196 133.422 147.196 133.422C153.096 133.422 158.296 136.522 161.196 141.222L153.896 144.822C152.396 142.722 149.896 141.422 147.196 141.422C142.596 141.422 138.796 145.222 138.796 149.822C138.796 154.422 142.596 158.222 147.196 158.222C151.796 158.222 155.596 154.422 155.596 149.822C155.596 149.022 155.496 148.222 155.296 147.522L162.496 143.922Z" fill="url(#paint12_linear_296_1517)"/>
<path d="M162.496 143.922C163.196 145.722 163.596 147.722 163.596 149.822C163.596 158.922 156.196 166.222 147.196 166.222C138.096 166.222 130.796 158.822 130.796 149.822C130.796 140.722 138.196 133.422 147.196 133.422C153.096 133.422 158.296 136.522 161.196 141.222L153.896 144.822C152.396 142.722 149.896 141.422 147.196 141.422C142.596 141.422 138.796 145.222 138.796 149.822C138.796 154.422 142.596 158.222 147.196 158.222C151.796 158.222 155.596 154.422 155.596 149.822C155.596 149.022 155.496 148.222 155.296 147.522L162.496 143.922Z" fill="url(#paint13_linear_296_1517)"/>
<path d="M152.496 148.922C152.596 149.222 152.596 149.522 152.596 149.922C152.596 152.922 150.196 155.322 147.196 155.322C144.196 155.322 141.796 152.922 141.796 149.922C141.796 146.922 144.196 144.522 147.196 144.522C148.796 144.522 150.196 145.222 151.196 146.322L146.596 148.622C145.896 149.022 145.596 149.922 145.896 150.622C146.196 151.122 146.696 151.422 147.296 151.422C147.496 151.422 147.796 151.422 147.996 151.222L152.496 148.922Z" fill="url(#paint14_linear_296_1517)"/>
<path d="M152.496 148.922C152.596 149.222 152.596 149.522 152.596 149.922C152.596 152.922 150.196 155.322 147.196 155.322C144.196 155.322 141.796 152.922 141.796 149.922C141.796 146.922 144.196 144.522 147.196 144.522C148.796 144.522 150.196 145.222 151.196 146.322L146.596 148.622C145.896 149.022 145.596 149.922 145.896 150.622C146.196 151.122 146.696 151.422 147.296 151.422C147.496 151.422 147.796 151.422 147.996 151.222L152.496 148.922Z" fill="url(#paint15_linear_296_1517)"/>
<path d="M495.895 620.496C495.666 621.469 494.532 621.921 493.627 621.401C481.59 614.05 467.865 610.822 453.762 611.821L451.133 611.203C439.051 604.047 425.205 600.894 411.176 602.012C410.134 602.075 409.321 601.165 409.55 600.192L421.567 549.085L419.62 548.628L406.87 602.849L496.622 623.954L509.372 569.733L507.815 569.367L495.797 620.473L495.895 620.496Z" fill="url(#paint16_linear_296_1517)"/>
<path d="M495.895 620.496C495.666 621.469 494.532 621.921 493.627 621.401C481.59 614.05 467.865 610.822 453.762 611.821L451.133 611.203C439.051 604.047 425.205 600.894 411.176 602.012C410.134 602.075 409.321 601.165 409.55 600.192L421.567 549.085L419.62 548.628L406.87 602.849L496.622 623.954L509.372 569.733L507.815 569.367L495.797 620.473L495.895 620.496Z" fill="url(#paint17_linear_296_1517)"/>
<path d="M493.432 617.862L506.159 563.738C494.752 556.33 481.124 553.126 467.611 554.673L454.884 608.797C461.646 608.436 468.397 608.996 474.822 610.507C481.246 612.017 487.54 614.524 493.432 617.862ZM470.738 559.723C481.194 559.819 491.707 562.291 501.109 566.865C501.842 567.243 502.146 568.136 501.768 568.869C501.413 569.505 500.715 569.854 500.033 569.694C499.936 569.671 499.839 569.648 499.741 569.625C490.705 565.24 480.679 562.883 470.635 562.781C469.811 562.793 469.146 562.123 469.135 561.298C469.266 560.302 469.936 559.638 470.738 559.723ZM469.158 566.44C479.614 566.536 490.127 569.008 499.53 573.582C500.263 573.96 500.567 574.853 500.189 575.586C499.834 576.222 499.135 576.571 498.454 576.411C498.357 576.388 498.259 576.365 498.162 576.342C489.126 571.957 479.099 569.6 469.056 569.498C468.231 569.509 467.567 568.84 467.555 568.015C467.687 567.019 468.357 566.354 469.158 566.44ZM467.579 573.157C478.035 573.253 488.548 575.725 497.951 580.299C498.684 580.677 498.987 581.57 498.609 582.303C498.254 582.938 497.556 583.288 496.874 583.128C496.777 583.105 496.68 583.082 496.582 583.059C487.546 578.674 477.52 576.316 467.476 576.215C466.652 576.226 465.987 575.556 465.976 574.732C466.107 573.735 466.777 573.071 467.579 573.157ZM466 579.874C476.455 579.97 486.968 582.442 496.371 587.016C497.104 587.393 497.408 588.287 497.03 589.02C496.675 589.655 495.976 590.005 495.295 589.844C495.198 589.822 495.1 589.799 495.003 589.776C485.967 585.391 475.94 583.033 465.897 582.931C465.072 582.943 464.408 582.273 464.396 581.449C464.528 580.452 465.198 579.788 466 579.874ZM464.42 586.591C474.876 586.686 485.389 589.159 494.792 593.732C495.525 594.11 495.828 595.003 495.45 595.736C495.095 596.372 494.397 596.721 493.716 596.561C493.618 596.538 493.521 596.515 493.424 596.493C484.387 592.108 474.361 589.75 464.317 589.648C463.493 589.66 462.829 588.99 462.817 588.165C462.926 587.266 463.596 586.602 464.42 586.591ZM462.841 593.307C473.296 593.403 483.809 595.875 493.212 600.449C493.945 600.827 494.249 601.72 493.871 602.453C493.516 603.089 492.817 603.438 492.136 603.278C492.039 603.255 491.941 603.232 491.844 603.209C482.808 598.824 472.781 596.467 462.738 596.365C461.913 596.377 461.249 595.707 461.238 594.882C461.346 593.983 462.016 593.319 462.841 593.307ZM461.181 602.984C460.357 602.996 459.693 602.326 459.681 601.502C459.669 600.677 460.339 600.013 461.164 600.001C471.619 600.097 482.133 602.569 491.535 607.143C492.268 607.521 492.572 608.414 492.194 609.147C491.839 609.783 491.141 610.132 490.459 609.972C490.362 609.949 490.265 609.926 490.167 609.903C481.251 605.444 471.225 603.086 461.181 602.984Z" fill="url(#paint18_linear_296_1517)"/>
<path d="M493.432 617.862L506.159 563.738C494.752 556.33 481.124 553.126 467.611 554.673L454.884 608.797C461.646 608.436 468.397 608.996 474.822 610.507C481.246 612.017 487.54 614.524 493.432 617.862ZM470.738 559.723C481.194 559.819 491.707 562.291 501.109 566.865C501.842 567.243 502.146 568.136 501.768 568.869C501.413 569.505 500.715 569.854 500.033 569.694C499.936 569.671 499.839 569.648 499.741 569.625C490.705 565.24 480.679 562.883 470.635 562.781C469.811 562.793 469.146 562.123 469.135 561.298C469.266 560.302 469.936 559.638 470.738 559.723ZM469.158 566.44C479.614 566.536 490.127 569.008 499.53 573.582C500.263 573.96 500.567 574.853 500.189 575.586C499.834 576.222 499.135 576.571 498.454 576.411C498.357 576.388 498.259 576.365 498.162 576.342C489.126 571.957 479.099 569.6 469.056 569.498C468.231 569.509 467.567 568.84 467.555 568.015C467.687 567.019 468.357 566.354 469.158 566.44ZM467.579 573.157C478.035 573.253 488.548 575.725 497.951 580.299C498.684 580.677 498.987 581.57 498.609 582.303C498.254 582.938 497.556 583.288 496.874 583.128C496.777 583.105 496.68 583.082 496.582 583.059C487.546 578.674 477.52 576.316 467.476 576.215C466.652 576.226 465.987 575.556 465.976 574.732C466.107 573.735 466.777 573.071 467.579 573.157ZM466 579.874C476.455 579.97 486.968 582.442 496.371 587.016C497.104 587.393 497.408 588.287 497.03 589.02C496.675 589.655 495.976 590.005 495.295 589.844C495.198 589.822 495.1 589.799 495.003 589.776C485.967 585.391 475.94 583.033 465.897 582.931C465.072 582.943 464.408 582.273 464.396 581.449C464.528 580.452 465.198 579.788 466 579.874ZM464.42 586.591C474.876 586.686 485.389 589.159 494.792 593.732C495.525 594.11 495.828 595.003 495.45 595.736C495.095 596.372 494.397 596.721 493.716 596.561C493.618 596.538 493.521 596.515 493.424 596.493C484.387 592.108 474.361 589.75 464.317 589.648C463.493 589.66 462.829 588.99 462.817 588.165C462.926 587.266 463.596 586.602 464.42 586.591ZM462.841 593.307C473.296 593.403 483.809 595.875 493.212 600.449C493.945 600.827 494.249 601.72 493.871 602.453C493.516 603.089 492.817 603.438 492.136 603.278C492.039 603.255 491.941 603.232 491.844 603.209C482.808 598.824 472.781 596.467 462.738 596.365C461.913 596.377 461.249 595.707 461.238 594.882C461.346 593.983 462.016 593.319 462.841 593.307ZM461.181 602.984C460.357 602.996 459.693 602.326 459.681 601.502C459.669 600.677 460.339 600.013 461.164 600.001C471.619 600.097 482.133 602.569 491.535 607.143C492.268 607.521 492.572 608.414 492.194 609.147C491.839 609.783 491.141 610.132 490.459 609.972C490.362 609.949 490.265 609.926 490.167 609.903C481.251 605.444 471.225 603.086 461.181 602.984Z" fill="url(#paint19_linear_296_1517)"/>
<path d="M451.671 608.042L464.398 553.918C452.991 546.51 439.363 543.306 425.85 544.853L413.123 598.977C419.885 598.615 426.636 599.176 433.061 600.686C439.486 602.197 445.779 604.704 451.671 608.042ZM428.393 549.766C438.849 549.862 449.362 552.334 458.764 556.908C459.497 557.286 459.801 558.179 459.423 558.912C459.045 559.645 458.152 559.948 457.419 559.571C448.383 555.186 438.356 552.828 428.313 552.726C428.216 552.703 428.118 552.681 428.021 552.658C427.34 552.497 426.87 551.873 426.836 551.146C426.921 550.344 427.591 549.68 428.393 549.766ZM426.813 556.483C437.269 556.579 447.782 559.051 457.185 563.625C457.918 564.002 458.222 564.896 457.844 565.629C457.466 566.362 456.573 566.665 455.84 566.287C446.804 561.903 436.777 559.545 426.734 559.443C426.636 559.42 426.539 559.397 426.442 559.374C425.76 559.214 425.291 558.59 425.256 557.863C425.342 557.061 426.012 556.397 426.813 556.483ZM425.234 563.2C435.69 563.295 446.203 565.768 455.606 570.341C456.339 570.719 456.642 571.612 456.264 572.345C455.886 573.078 454.993 573.382 454.26 573.004C445.224 568.619 435.198 566.262 425.154 566.16C425.057 566.137 424.959 566.114 424.862 566.091C424.181 565.931 423.711 565.307 423.677 564.58C423.762 563.778 424.432 563.114 425.234 563.2ZM423.654 569.916C434.11 570.012 444.623 572.484 454.026 577.058C454.759 577.436 455.063 578.329 454.685 579.062C454.307 579.795 453.414 580.099 452.681 579.721C443.645 575.336 433.618 572.978 423.575 572.877C423.477 572.854 423.38 572.831 423.283 572.808C422.601 572.648 422.132 572.024 422.097 571.297C422.183 570.495 422.853 569.831 423.654 569.916ZM422.075 576.633C432.531 576.729 443.044 579.201 452.447 583.775C453.18 584.153 453.483 585.046 453.105 585.779C452.75 586.415 452.052 586.764 451.371 586.604C451.273 586.581 451.176 586.558 451.078 586.535C442.042 582.15 432.016 579.793 421.972 579.691C421.148 579.702 420.484 579.033 420.472 578.208C420.581 577.309 421.25 576.645 422.075 576.633ZM420.496 583.35C430.951 583.446 441.464 585.918 450.867 590.492C451.6 590.87 451.904 591.763 451.526 592.496C451.171 593.131 450.472 593.481 449.791 593.321C449.694 593.298 449.596 593.275 449.499 593.252C440.463 588.867 430.436 586.509 420.393 586.408C419.568 586.419 418.904 585.749 418.893 584.925C419.001 584.026 419.671 583.361 420.496 583.35ZM418.934 593.05C418.109 593.062 417.445 592.392 417.433 591.567C417.422 590.743 418.092 590.078 418.916 590.067C429.372 590.163 439.885 592.635 449.288 597.209C450.021 597.586 450.324 598.48 449.946 599.213C449.592 599.848 448.893 600.198 448.212 600.037C448.114 600.014 448.017 599.992 447.92 599.969C439.004 595.509 428.88 593.129 418.934 593.05Z" fill="url(#paint20_linear_296_1517)"/>
<path d="M451.671 608.042L464.398 553.918C452.991 546.51 439.363 543.306 425.85 544.853L413.123 598.977C419.885 598.615 426.636 599.176 433.061 600.686C439.486 602.197 445.779 604.704 451.671 608.042ZM428.393 549.766C438.849 549.862 449.362 552.334 458.764 556.908C459.497 557.286 459.801 558.179 459.423 558.912C459.045 559.645 458.152 559.948 457.419 559.571C448.383 555.186 438.356 552.828 428.313 552.726C428.216 552.703 428.118 552.681 428.021 552.658C427.34 552.497 426.87 551.873 426.836 551.146C426.921 550.344 427.591 549.68 428.393 549.766ZM426.813 556.483C437.269 556.579 447.782 559.051 457.185 563.625C457.918 564.002 458.222 564.896 457.844 565.629C457.466 566.362 456.573 566.665 455.84 566.287C446.804 561.903 436.777 559.545 426.734 559.443C426.636 559.42 426.539 559.397 426.442 559.374C425.76 559.214 425.291 558.59 425.256 557.863C425.342 557.061 426.012 556.397 426.813 556.483ZM425.234 563.2C435.69 563.295 446.203 565.768 455.606 570.341C456.339 570.719 456.642 571.612 456.264 572.345C455.886 573.078 454.993 573.382 454.26 573.004C445.224 568.619 435.198 566.262 425.154 566.16C425.057 566.137 424.959 566.114 424.862 566.091C424.181 565.931 423.711 565.307 423.677 564.58C423.762 563.778 424.432 563.114 425.234 563.2ZM423.654 569.916C434.11 570.012 444.623 572.484 454.026 577.058C454.759 577.436 455.063 578.329 454.685 579.062C454.307 579.795 453.414 580.099 452.681 579.721C443.645 575.336 433.618 572.978 423.575 572.877C423.477 572.854 423.38 572.831 423.283 572.808C422.601 572.648 422.132 572.024 422.097 571.297C422.183 570.495 422.853 569.831 423.654 569.916ZM422.075 576.633C432.531 576.729 443.044 579.201 452.447 583.775C453.18 584.153 453.483 585.046 453.105 585.779C452.75 586.415 452.052 586.764 451.371 586.604C451.273 586.581 451.176 586.558 451.078 586.535C442.042 582.15 432.016 579.793 421.972 579.691C421.148 579.702 420.484 579.033 420.472 578.208C420.581 577.309 421.25 576.645 422.075 576.633ZM420.496 583.35C430.951 583.446 441.464 585.918 450.867 590.492C451.6 590.87 451.904 591.763 451.526 592.496C451.171 593.131 450.472 593.481 449.791 593.321C449.694 593.298 449.596 593.275 449.499 593.252C440.463 588.867 430.436 586.509 420.393 586.408C419.568 586.419 418.904 585.749 418.893 584.925C419.001 584.026 419.671 583.361 420.496 583.35ZM418.934 593.05C418.109 593.062 417.445 592.392 417.433 591.567C417.422 590.743 418.092 590.078 418.916 590.067C429.372 590.163 439.885 592.635 449.288 597.209C450.021 597.586 450.324 598.48 449.946 599.213C449.592 599.848 448.893 600.198 448.212 600.037C448.114 600.014 448.017 599.992 447.92 599.969C439.004 595.509 428.88 593.129 418.934 593.05Z" fill="url(#paint21_linear_296_1517)"/>
<path d="M107.14 301.738L73.2334 286.828L50.1447 339.336L84.0515 354.245L107.14 301.738Z" fill="url(#paint22_linear_296_1517)"/>
<path d="M114.83 305.119L111.168 303.509L88.0793 356.017L91.7409 357.627L114.83 305.119Z" fill="url(#paint23_linear_296_1517)"/>
<path d="M58.4387 347.702L53.1576 359.712L51.7537 355.949L47.5363 357.59L52.9462 345.287L58.4387 347.702Z" fill="url(#paint24_linear_296_1517)"/>
<path d="M107.14 301.738L73.2334 286.828L50.1447 339.336L84.0515 354.245L107.14 301.738Z" fill="url(#paint25_linear_296_1517)"/>
<path d="M114.83 305.119L111.168 303.509L88.0793 356.017L91.7409 357.627L114.83 305.119Z" fill="url(#paint26_linear_296_1517)"/>
<path d="M58.4387 347.702L53.1576 359.712L51.7537 355.949L47.5363 357.59L52.9462 345.287L58.4387 347.702Z" fill="url(#paint27_linear_296_1517)"/>
<path d="M108.296 495.602L103.996 495.602L103.996 514.602L108.296 514.602L108.296 495.602Z" fill="url(#paint28_linear_296_1517)"/>
<path d="M115.587 507.294L115.587 502.994L96.5874 502.994L96.5874 507.294L115.587 507.294Z" fill="url(#paint29_linear_296_1517)"/>
<path d="M717.246 208.878L708.015 330.119L689.809 328.736L690.312 324.644L699.774 325.392C700.593 325.492 701.313 324.799 701.414 323.98C701.514 323.162 700.821 322.441 700.002 322.341L690.441 321.605L690.805 318.84L694.662 319.07C695.48 319.17 696.201 318.477 696.302 317.659C696.402 316.84 695.709 316.119 694.89 316.019L691.021 315.69L691.286 312.937L695.143 313.167C695.962 313.267 696.682 312.574 696.783 311.755C696.883 310.937 696.19 310.216 695.372 310.116L691.502 309.787L691.767 307.034L695.525 307.276C696.344 307.376 697.064 306.683 697.165 305.864C697.265 305.046 696.572 304.325 695.753 304.225L691.735 304.317L692 301.564L695.857 301.794C696.675 301.894 697.396 301.201 697.496 300.382C697.597 299.564 696.904 298.843 696.085 298.743L692.216 298.414L692.481 295.661L696.239 295.903C697.057 296.003 697.778 295.31 697.878 294.491C697.979 293.673 697.286 292.952 696.467 292.852L692.598 292.523L692.875 289.869L696.633 290.111C697.451 290.212 698.172 289.518 698.272 288.7C698.373 287.881 697.68 287.161 696.861 287.06L693.004 286.83L693.269 284.077L697.126 284.307C697.945 284.407 698.665 283.714 698.766 282.896C698.866 282.077 698.173 281.357 697.355 281.256L693.485 280.927L693.75 278.174L697.62 278.503C698.438 278.603 699.159 277.91 699.259 277.092C699.36 276.273 698.666 275.553 697.848 275.452L693.991 275.222L694.169 272.581L703.322 273.266C704.14 273.366 704.861 272.673 704.961 271.854C705.062 271.036 704.368 270.315 703.55 270.215L694.397 269.53L694.551 266.69L698.408 266.919C699.226 267.02 699.947 266.327 700.048 265.508C700.148 264.69 699.455 263.969 698.636 263.868L694.792 263.738L695.057 260.985L698.926 261.314C699.744 261.414 700.465 260.721 700.566 259.903C700.666 259.084 699.973 258.364 699.154 258.263L695.297 258.033L695.451 255.193L699.308 255.423C700.126 255.523 700.847 254.83 700.947 254.012C701.048 253.193 700.355 252.473 699.536 252.372L695.691 252.241L695.845 249.401L699.702 249.631C700.52 249.732 701.241 249.038 701.342 248.22C701.355 247.513 700.761 246.78 699.943 246.679L696.185 246.437L696.338 243.597L700.208 243.926C701.026 244.027 701.747 243.333 701.847 242.515C701.948 241.697 701.254 240.976 700.436 240.875L696.579 240.646L696.732 237.806L700.59 238.035C701.408 238.136 702.129 237.442 702.229 236.624C702.33 235.806 701.636 235.085 700.818 234.984L697.06 234.742L697.214 231.902L701.083 232.231C701.901 232.332 702.622 231.638 702.723 230.82C702.823 230.002 702.13 229.281 701.311 229.18L697.553 228.938L697.707 226.098L701.576 226.427C702.395 226.528 703.115 225.834 703.216 225.016C703.317 224.198 702.623 223.477 701.805 223.376L697.861 223.258L698.014 220.418L701.871 220.648C702.69 220.748 703.41 220.055 703.511 219.236C703.612 218.418 702.918 217.697 702.1 217.597L698.342 217.355L698.582 214.403L707.735 215.088C708.554 215.189 709.274 214.496 709.375 213.677C709.289 212.982 708.695 212.25 707.777 212.161L698.625 211.476L699.04 207.495L717.246 208.878Z" fill="url(#paint30_linear_296_1517)"/>
<path d="M717.246 208.878L708.015 330.119L689.809 328.736L690.312 324.644L699.774 325.392C700.593 325.492 701.313 324.799 701.414 323.98C701.514 323.162 700.821 322.441 700.002 322.341L690.441 321.605L690.805 318.84L694.662 319.07C695.48 319.17 696.201 318.477 696.302 317.659C696.402 316.84 695.709 316.119 694.89 316.019L691.021 315.69L691.286 312.937L695.143 313.167C695.962 313.267 696.682 312.574 696.783 311.755C696.883 310.937 696.19 310.216 695.372 310.116L691.502 309.787L691.767 307.034L695.525 307.276C696.344 307.376 697.064 306.683 697.165 305.864C697.265 305.046 696.572 304.325 695.753 304.225L691.735 304.317L692 301.564L695.857 301.794C696.675 301.894 697.396 301.201 697.496 300.382C697.597 299.564 696.904 298.843 696.085 298.743L692.216 298.414L692.481 295.661L696.239 295.903C697.057 296.003 697.778 295.31 697.878 294.491C697.979 293.673 697.286 292.952 696.467 292.852L692.598 292.523L692.875 289.869L696.633 290.111C697.451 290.212 698.172 289.518 698.272 288.7C698.373 287.881 697.68 287.161 696.861 287.06L693.004 286.83L693.269 284.077L697.126 284.307C697.945 284.407 698.665 283.714 698.766 282.896C698.866 282.077 698.173 281.357 697.355 281.256L693.485 280.927L693.75 278.174L697.62 278.503C698.438 278.603 699.159 277.91 699.259 277.092C699.36 276.273 698.666 275.553 697.848 275.452L693.991 275.222L694.169 272.581L703.322 273.266C704.14 273.366 704.861 272.673 704.961 271.854C705.062 271.036 704.368 270.315 703.55 270.215L694.397 269.53L694.551 266.69L698.408 266.919C699.226 267.02 699.947 266.327 700.048 265.508C700.148 264.69 699.455 263.969 698.636 263.868L694.792 263.738L695.057 260.985L698.926 261.314C699.744 261.414 700.465 260.721 700.566 259.903C700.666 259.084 699.973 258.364 699.154 258.263L695.297 258.033L695.451 255.193L699.308 255.423C700.126 255.523 700.847 254.83 700.947 254.012C701.048 253.193 700.355 252.473 699.536 252.372L695.691 252.241L695.845 249.401L699.702 249.631C700.52 249.732 701.241 249.038 701.342 248.22C701.355 247.513 700.761 246.78 699.943 246.679L696.185 246.437L696.338 243.597L700.208 243.926C701.026 244.027 701.747 243.333 701.847 242.515C701.948 241.697 701.254 240.976 700.436 240.875L696.579 240.646L696.732 237.806L700.59 238.035C701.408 238.136 702.129 237.442 702.229 236.624C702.33 235.806 701.636 235.085 700.818 234.984L697.06 234.742L697.214 231.902L701.083 232.231C701.901 232.332 702.622 231.638 702.723 230.82C702.823 230.002 702.13 229.281 701.311 229.18L697.553 228.938L697.707 226.098L701.576 226.427C702.395 226.528 703.115 225.834 703.216 225.016C703.317 224.198 702.623 223.477 701.805 223.376L697.861 223.258L698.014 220.418L701.871 220.648C702.69 220.748 703.41 220.055 703.511 219.236C703.612 218.418 702.918 217.697 702.1 217.597L698.342 217.355L698.582 214.403L707.735 215.088C708.554 215.189 709.274 214.496 709.375 213.677C709.289 212.982 708.695 212.25 707.777 212.161L698.625 211.476L699.04 207.495L717.246 208.878Z" fill="url(#paint31_linear_296_1517)"/>
<defs>
<linearGradient id="paint0_linear_296_1517" x1="185" y1="498.5" x2="161.5" y2="602" gradientUnits="userSpaceOnUse">
<stop stop-color="#53207F"/>
<stop offset="1" stop-color="#070C20"/>
</linearGradient>
<linearGradient id="paint1_linear_296_1517" x1="185" y1="498.5" x2="161.5" y2="602" gradientUnits="userSpaceOnUse">
<stop stop-color="#53207F"/>
<stop offset="1" stop-color="#070C20"/>
</linearGradient>
<linearGradient id="paint2_linear_296_1517" x1="185" y1="498.5" x2="161.5" y2="602" gradientUnits="userSpaceOnUse">
<stop stop-color="#53207F"/>
<stop offset="1" stop-color="#070C20"/>
</linearGradient>
<linearGradient id="paint3_linear_296_1517" x1="636.181" y1="427.676" x2="730.601" y2="483.536" gradientUnits="userSpaceOnUse">
<stop stop-color="#642495"/>
<stop offset="1" stop-color="#070C20"/>
</linearGradient>
<linearGradient id="paint4_linear_296_1517" x1="183.761" y1="217.23" x2="159.117" y2="251.584" gradientUnits="userSpaceOnUse">
<stop stop-color="#3C3ADA"/>
<stop offset="1" stop-color="#070C20"/>
</linearGradient>
<linearGradient id="paint5_linear_296_1517" x1="243.208" y1="13.6976" x2="222.628" y2="49.5736" gradientUnits="userSpaceOnUse">
<stop stop-color="#3C3ADA"/>
<stop offset="1" stop-color="#070C20"/>
</linearGradient>
<linearGradient id="paint6_linear_296_1517" x1="224.5" y1="90" x2="126.23" y2="191.238" gradientUnits="userSpaceOnUse">
<stop stop-color="#3C3ADA"/>
<stop offset="1" stop-color="#070C20"/>
</linearGradient>
<linearGradient id="paint7_linear_296_1517" x1="224.5" y1="90" x2="126.23" y2="191.238" gradientUnits="userSpaceOnUse">
<stop stop-color="#3C3ADA"/>
<stop offset="1" stop-color="#070C20"/>
</linearGradient>
<linearGradient id="paint8_linear_296_1517" x1="224.5" y1="90" x2="126.23" y2="191.238" gradientUnits="userSpaceOnUse">
<stop stop-color="#3C3ADA"/>
<stop offset="1" stop-color="#070C20"/>
</linearGradient>
<linearGradient id="paint9_linear_296_1517" x1="224.5" y1="90" x2="126.23" y2="191.238" gradientUnits="userSpaceOnUse">
<stop stop-color="#3C3ADA"/>
<stop offset="1" stop-color="#070C20"/>
</linearGradient>
<linearGradient id="paint10_linear_296_1517" x1="224.5" y1="90" x2="126.23" y2="191.238" gradientUnits="userSpaceOnUse">
<stop stop-color="#3C3ADA"/>
<stop offset="1" stop-color="#070C20"/>
</linearGradient>
<linearGradient id="paint11_linear_296_1517" x1="224.5" y1="90" x2="126.23" y2="191.238" gradientUnits="userSpaceOnUse">
<stop stop-color="#3C3ADA"/>
<stop offset="1" stop-color="#070C20"/>
</linearGradient>
<linearGradient id="paint12_linear_296_1517" x1="224.5" y1="90" x2="126.23" y2="191.238" gradientUnits="userSpaceOnUse">
<stop stop-color="#3C3ADA"/>
<stop offset="1" stop-color="#070C20"/>
</linearGradient>
<linearGradient id="paint13_linear_296_1517" x1="224.5" y1="90" x2="126.23" y2="191.238" gradientUnits="userSpaceOnUse">
<stop stop-color="#3C3ADA"/>
<stop offset="1" stop-color="#070C20"/>
</linearGradient>
<linearGradient id="paint14_linear_296_1517" x1="224.5" y1="90" x2="126.23" y2="191.238" gradientUnits="userSpaceOnUse">
<stop stop-color="#3C3ADA"/>
<stop offset="1" stop-color="#070C20"/>
</linearGradient>
<linearGradient id="paint15_linear_296_1517" x1="224.5" y1="90" x2="126.23" y2="191.238" gradientUnits="userSpaceOnUse">
<stop stop-color="#3C3ADA"/>
<stop offset="1" stop-color="#070C20"/>
</linearGradient>
<linearGradient id="paint16_linear_296_1517" x1="466" y1="550" x2="451.99" y2="660.936" gradientUnits="userSpaceOnUse">
<stop stop-color="#4C1E76"/>
<stop offset="1" stop-color="#070C20"/>
</linearGradient>
<linearGradient id="paint17_linear_296_1517" x1="466" y1="550" x2="451.99" y2="660.936" gradientUnits="userSpaceOnUse">
<stop stop-color="#4C1E76"/>
<stop offset="1" stop-color="#070C20"/>
</linearGradient>
<linearGradient id="paint18_linear_296_1517" x1="466" y1="550" x2="451.99" y2="660.936" gradientUnits="userSpaceOnUse">
<stop stop-color="#4C1E76"/>
<stop offset="1" stop-color="#070C20"/>
</linearGradient>
<linearGradient id="paint19_linear_296_1517" x1="466" y1="550" x2="451.99" y2="660.936" gradientUnits="userSpaceOnUse">
<stop stop-color="#4C1E76"/>
<stop offset="1" stop-color="#070C20"/>
</linearGradient>
<linearGradient id="paint20_linear_296_1517" x1="466" y1="550" x2="451.99" y2="660.936" gradientUnits="userSpaceOnUse">
<stop stop-color="#4C1E76"/>
<stop offset="1" stop-color="#070C20"/>
</linearGradient>
<linearGradient id="paint21_linear_296_1517" x1="466" y1="550" x2="451.99" y2="660.936" gradientUnits="userSpaceOnUse">
<stop stop-color="#4C1E76"/>
<stop offset="1" stop-color="#070C20"/>
</linearGradient>
<linearGradient id="paint22_linear_296_1517" x1="136.313" y1="308.772" x2="56.3812" y2="355.507" gradientUnits="userSpaceOnUse">
<stop stop-color="#501F7C"/>
<stop offset="1" stop-color="#070C20"/>
</linearGradient>
<linearGradient id="paint23_linear_296_1517" x1="136.313" y1="308.772" x2="56.3812" y2="355.507" gradientUnits="userSpaceOnUse">
<stop stop-color="#501F7C"/>
<stop offset="1" stop-color="#070C20"/>
</linearGradient>
<linearGradient id="paint24_linear_296_1517" x1="136.313" y1="308.772" x2="56.3812" y2="355.507" gradientUnits="userSpaceOnUse">
<stop stop-color="#501F7C"/>
<stop offset="1" stop-color="#070C20"/>
</linearGradient>
<linearGradient id="paint25_linear_296_1517" x1="136.313" y1="308.772" x2="56.3812" y2="355.507" gradientUnits="userSpaceOnUse">
<stop stop-color="#501F7C"/>
<stop offset="1" stop-color="#070C20"/>
</linearGradient>
<linearGradient id="paint26_linear_296_1517" x1="136.313" y1="308.772" x2="56.3812" y2="355.507" gradientUnits="userSpaceOnUse">
<stop stop-color="#501F7C"/>
<stop offset="1" stop-color="#070C20"/>
</linearGradient>
<linearGradient id="paint27_linear_296_1517" x1="136.313" y1="308.772" x2="56.3812" y2="355.507" gradientUnits="userSpaceOnUse">
<stop stop-color="#501F7C"/>
<stop offset="1" stop-color="#070C20"/>
</linearGradient>
<linearGradient id="paint28_linear_296_1517" x1="105.657" y1="474.726" x2="106.28" y2="514.599" gradientUnits="userSpaceOnUse">
<stop stop-color="#3C3ADA"/>
<stop offset="1" stop-color="#070C20"/>
</linearGradient>
<linearGradient id="paint29_linear_296_1517" x1="105.657" y1="474.726" x2="106.28" y2="514.599" gradientUnits="userSpaceOnUse">
<stop stop-color="#3C3ADA"/>
<stop offset="1" stop-color="#070C20"/>
</linearGradient>
<linearGradient id="paint30_linear_296_1517" x1="716.371" y1="252.003" x2="655.965" y2="293.397" gradientUnits="userSpaceOnUse">
<stop stop-color="#3C37CF"/>
<stop offset="1" stop-color="#070C20"/>
</linearGradient>
<linearGradient id="paint31_linear_296_1517" x1="716.371" y1="252.003" x2="655.965" y2="293.397" gradientUnits="userSpaceOnUse">
<stop stop-color="#3C37CF"/>
<stop offset="1" stop-color="#070C20"/>
</linearGradient>
</defs>
</svg>
