<svg width="68" height="74" viewBox="0 0 68 74" fill="none" xmlns="http://www.w3.org/2000/svg">
<path d="M7.6855 15.7376L41.5923 0.828125L64.681 53.336L30.7742 68.2455L7.6855 15.7376Z" fill="url(#paint0_linear_463_1262)"/>
<path d="M-0.00393854 19.1188L3.6577 17.5087L26.7464 70.0166L23.0848 71.6267L-0.00393854 19.1188Z" fill="url(#paint1_linear_463_1262)"/>
<path d="M56.387 61.7023L61.6681 73.7124L63.072 69.949L67.2894 71.5902L61.8795 59.2871L56.387 61.7023Z" fill="url(#paint2_linear_463_1262)"/>
<path d="M7.6855 15.7376L41.5923 0.828125L64.681 53.336L30.7742 68.2455L7.6855 15.7376Z" fill="url(#paint3_linear_463_1262)"/>
<path d="M-0.00393854 19.1188L3.6577 17.5087L26.7464 70.0166L23.0848 71.6267L-0.00393854 19.1188Z" fill="url(#paint4_linear_463_1262)"/>
<path d="M56.387 61.7023L61.6681 73.7124L63.072 69.949L67.2894 71.5902L61.8795 59.2871L56.387 61.7023Z" fill="url(#paint5_linear_463_1262)"/>
<defs>
<linearGradient id="paint0_linear_463_1262" x1="-21.4874" y1="22.772" x2="58.4445" y2="69.5074" gradientUnits="userSpaceOnUse">
<stop stop-color="#501F7C"/>
<stop offset="1" stop-color="#070C20"/>
</linearGradient>
<linearGradient id="paint1_linear_463_1262" x1="-21.4874" y1="22.772" x2="58.4445" y2="69.5074" gradientUnits="userSpaceOnUse">
<stop stop-color="#501F7C"/>
<stop offset="1" stop-color="#070C20"/>
</linearGradient>
<linearGradient id="paint2_linear_463_1262" x1="-21.4874" y1="22.772" x2="58.4445" y2="69.5074" gradientUnits="userSpaceOnUse">
<stop stop-color="#501F7C"/>
<stop offset="1" stop-color="#070C20"/>
</linearGradient>
<linearGradient id="paint3_linear_463_1262" x1="-21.4874" y1="22.772" x2="58.4445" y2="69.5074" gradientUnits="userSpaceOnUse">
<stop stop-color="#501F7C"/>
<stop offset="1" stop-color="#070C20"/>
</linearGradient>
<linearGradient id="paint4_linear_463_1262" x1="-21.4874" y1="22.772" x2="58.4445" y2="69.5074" gradientUnits="userSpaceOnUse">
<stop stop-color="#501F7C"/>
<stop offset="1" stop-color="#070C20"/>
</linearGradient>
<linearGradient id="paint5_linear_463_1262" x1="-21.4874" y1="22.772" x2="58.4445" y2="69.5074" gradientUnits="userSpaceOnUse">
<stop stop-color="#501F7C"/>
<stop offset="1" stop-color="#070C20"/>
</linearGradient>
</defs>
</svg>
