<svg width="60" height="20" viewBox="0 0 60 20" fill="none" xmlns="http://www.w3.org/2000/svg">
<path d="M49.2888 0.13807C48.624 0.0414209 47.9421 0 47.2431 0H13.3521C11.3406 0 9.49947 0.883646 8.54484 2.31957L1.16345 13.3375C-0.814014 16.2922 1.82828 19.882 5.97073 19.882H47.2261C47.925 19.882 48.6069 19.8406 49.2717 19.744C55.0678 18.957 59.5 14.8701 59.5 9.94102C59.5 5.01193 55.1019 0.925067 49.2888 0.13807Z" fill="#279D70"/>
<path d="M12.3898 7.27648C12.2183 7.27648 12.0597 7.24219 11.914 7.17361C11.7683 7.10361 11.644 7.01288 11.5411 6.90145C11.4397 6.79001 11.3683 6.67143 11.3268 6.54571L11.7554 6.36569C11.7826 6.45142 11.8254 6.53214 11.884 6.60786C11.9426 6.68215 12.014 6.74287 12.0983 6.79001C12.184 6.83716 12.279 6.86073 12.3833 6.86073C12.4791 6.86073 12.5676 6.84002 12.6491 6.79858C12.7305 6.75715 12.7962 6.70072 12.8462 6.62929C12.8977 6.55642 12.9234 6.47285 12.9234 6.37855C12.9234 6.28283 12.8977 6.2014 12.8462 6.13425C12.7962 6.06567 12.7334 6.00853 12.6576 5.96281C12.5819 5.91709 12.5055 5.88066 12.4283 5.85351C12.3526 5.82494 12.289 5.80137 12.2376 5.78279C12.0962 5.73422 11.964 5.67136 11.8411 5.59421C11.7183 5.51563 11.619 5.41705 11.5433 5.29847C11.4675 5.17989 11.4297 5.0356 11.4297 4.86558C11.4297 4.69986 11.4675 4.55628 11.5433 4.43484C11.619 4.31197 11.7247 4.21697 11.8604 4.14982C11.9976 4.08267 12.1555 4.0491 12.334 4.0491C12.5012 4.0491 12.6469 4.07624 12.7712 4.13053C12.8955 4.18482 12.9998 4.25625 13.0841 4.34483C13.1698 4.43341 13.2355 4.52913 13.2813 4.632L12.8698 4.79701C12.8455 4.75129 12.8098 4.70272 12.7626 4.65128C12.7155 4.59842 12.6562 4.55413 12.5848 4.51842C12.5133 4.48127 12.4312 4.4627 12.3383 4.4627C12.2183 4.4627 12.1112 4.49699 12.0169 4.56556C11.924 4.63414 11.8776 4.73629 11.8776 4.87201C11.8776 4.95916 11.8976 5.03417 11.9376 5.09703C11.979 5.15846 12.0312 5.21132 12.094 5.25561C12.1583 5.29847 12.2247 5.3349 12.2933 5.36491C12.3633 5.39348 12.4269 5.41777 12.4841 5.43777C12.5498 5.4592 12.6319 5.49063 12.7305 5.53206C12.8291 5.57206 12.9269 5.62707 13.0241 5.69707C13.1212 5.76708 13.2034 5.85637 13.2705 5.96495C13.3377 6.07353 13.3713 6.20711 13.3713 6.36569C13.3713 6.54428 13.3263 6.70215 13.2362 6.8393C13.1462 6.97645 13.0262 7.0836 12.8762 7.16075C12.7276 7.2379 12.5655 7.27648 12.3898 7.27648ZM15.1071 7.27648C14.8742 7.27648 14.6706 7.22862 14.4963 7.13289C14.3235 7.03574 14.1892 6.90002 14.0935 6.72572C13.9977 6.55142 13.9499 6.34641 13.9499 6.11068V4.08338H14.4042V6.12353C14.4042 6.27212 14.4335 6.40213 14.4921 6.51356C14.5506 6.62357 14.6328 6.70929 14.7385 6.77072C14.8442 6.83216 14.9671 6.86287 15.1071 6.86287C15.3228 6.86287 15.4936 6.79501 15.6193 6.65929C15.745 6.52356 15.8079 6.34498 15.8079 6.12353V4.08338H16.2643V6.11068C16.2643 6.34641 16.2172 6.55142 16.1229 6.72572C16.0286 6.90002 15.895 7.03574 15.7221 7.13289C15.5493 7.22862 15.3443 7.27648 15.1071 7.27648ZM17.3123 6.03781V5.62635H17.9059C18.0273 5.62635 18.133 5.60207 18.223 5.55349C18.3131 5.50492 18.3831 5.43777 18.4331 5.35205C18.4831 5.2649 18.5081 5.16418 18.5081 5.04988C18.5081 4.87701 18.4509 4.742 18.3366 4.64485C18.2238 4.54628 18.0716 4.49699 17.8802 4.49699H17.3123V4.08338H17.908C18.1223 4.08338 18.3081 4.12267 18.4652 4.20125C18.6224 4.27983 18.7438 4.39055 18.8295 4.53342C18.9167 4.67628 18.9602 4.84415 18.9602 5.03703C18.9602 5.23133 18.9181 5.40348 18.8338 5.55349C18.7495 5.7035 18.6302 5.82208 18.4759 5.90923C18.3231 5.99495 18.1423 6.03781 17.9337 6.03781H17.3123ZM16.9672 7.24219V4.08338H17.4216V7.24219H16.9672ZM19.4488 7.24219V4.08338H21.2061V4.49699H19.9032V5.43348H20.9961V5.84066H19.9032V6.82859H21.2061V7.24219H19.4488ZM22.104 6.00353V5.61564H22.7341C22.8555 5.61564 22.962 5.59278 23.0534 5.54706C23.1448 5.49992 23.2163 5.4342 23.2677 5.34991C23.3191 5.26418 23.3448 5.16418 23.3448 5.04988C23.3448 4.87701 23.2863 4.742 23.1691 4.64485C23.0534 4.54628 22.8998 4.49699 22.7084 4.49699H22.104V4.08338H22.7812C22.9727 4.08338 23.1448 4.11982 23.2977 4.19268C23.452 4.26554 23.5734 4.37055 23.662 4.5077C23.752 4.64485 23.797 4.80987 23.797 5.00274C23.797 5.18847 23.7527 5.35705 23.6642 5.50849C23.5756 5.65993 23.4484 5.78065 23.2827 5.87066C23.1184 5.95924 22.922 6.00353 22.6934 6.00353H22.104ZM21.7976 7.24219V4.08338H22.2519V7.24219H21.7976ZM23.527 7.24219L22.7191 5.93495L23.0684 5.66279L24.0499 7.24219H23.527Z" fill="white"/>
<path d="M10.7429 15.25V8.92877H12.87C13.2846 8.92877 13.6791 8.99453 14.0536 9.12604C14.431 9.25755 14.7655 9.4534 15.0571 9.71356C15.3488 9.97373 15.5789 10.2982 15.7476 10.6871C15.9163 11.0759 16.0006 11.5276 16.0006 12.0422C16.0006 12.5654 15.9163 13.0271 15.7476 13.4274C15.5818 13.8248 15.3559 14.1593 15.07 14.4309C14.7841 14.7025 14.4596 14.9069 14.0965 15.0442C13.7334 15.1814 13.356 15.25 12.9644 15.25H10.7429ZM11.9694 14.1479H12.9944C13.2002 14.1479 13.4061 14.1064 13.6119 14.0235C13.8206 13.9406 14.0122 13.8134 14.1866 13.6418C14.3638 13.4674 14.5054 13.2487 14.6111 12.9857C14.7198 12.7198 14.7741 12.4053 14.7741 12.0422C14.7741 11.6877 14.7198 11.3832 14.6111 11.1288C14.5054 10.8743 14.3638 10.667 14.1866 10.5069C14.0122 10.344 13.8206 10.2239 13.6119 10.1467C13.4061 10.0695 13.2002 10.0309 12.9944 10.0309H11.9694V14.1479ZM16.9527 15.25V8.92877H18.1834V15.25H16.9527ZM21.5285 15.3186C21.1654 15.3186 20.8266 15.2486 20.5121 15.1085C20.1976 14.9684 19.9303 14.784 19.7102 14.5553C19.49 14.3237 19.3356 14.0735 19.247 13.8048L20.4092 13.3159C20.4578 13.456 20.5321 13.5946 20.6322 13.7319C20.7351 13.8662 20.8595 13.9777 21.0053 14.0664C21.1539 14.155 21.3212 14.1993 21.507 14.1993C21.6643 14.1993 21.8101 14.1664 21.9445 14.1007C22.0788 14.0349 22.1875 13.9449 22.2704 13.8305C22.3533 13.7133 22.3947 13.5832 22.3947 13.4403C22.3947 13.2859 22.349 13.1544 22.2575 13.0457C22.1689 12.9342 22.056 12.8413 21.9187 12.767C21.7815 12.6926 21.6385 12.6297 21.4899 12.5783C21.3441 12.524 21.2126 12.4768 21.0953 12.4368C20.8066 12.3367 20.5393 12.2109 20.2934 12.0594C20.0475 11.905 19.8488 11.7091 19.6973 11.4718C19.5486 11.2345 19.4743 10.9444 19.4743 10.6013C19.4743 10.2439 19.5572 9.93514 19.723 9.67497C19.8888 9.4148 20.1176 9.21467 20.4092 9.07458C20.7036 8.93163 21.041 8.86015 21.4213 8.86015C21.7758 8.86015 22.086 8.91876 22.3519 9.03598C22.6206 9.15034 22.845 9.3033 23.0252 9.49485C23.2081 9.6864 23.3482 9.89511 23.4454 10.121L22.3176 10.5755C22.2861 10.5041 22.2318 10.4212 22.1546 10.3268C22.0774 10.2296 21.9773 10.1453 21.8544 10.0738C21.7343 9.99946 21.5928 9.9623 21.4298 9.9623C21.2497 9.9623 21.081 10.0152 20.9238 10.121C20.7665 10.2268 20.6879 10.3883 20.6879 10.6056C20.6879 10.76 20.7308 10.8915 20.8166 11.0001C20.9052 11.1088 21.0153 11.2002 21.1468 11.2746C21.2783 11.3489 21.4127 11.4104 21.5499 11.459C21.69 11.5076 21.8115 11.549 21.9144 11.5833C22.0345 11.6205 22.1889 11.6805 22.3776 11.7635C22.5663 11.8435 22.7535 11.9536 22.9394 12.0937C23.1281 12.2338 23.2867 12.4125 23.4154 12.6297C23.5441 12.847 23.6084 13.1115 23.6084 13.4231C23.6084 13.7776 23.5169 14.0993 23.3339 14.388C23.1538 14.6739 22.9065 14.9012 22.592 15.0699C22.2775 15.2357 21.923 15.3186 21.5285 15.3186ZM27.6267 15.3186C27.1664 15.3186 26.7333 15.2386 26.3273 15.0785C25.9213 14.9155 25.5625 14.6882 25.2509 14.3966C24.9421 14.105 24.6991 13.7619 24.5218 13.3674C24.3474 12.9728 24.2602 12.544 24.2602 12.0808C24.2602 11.6148 24.3474 11.1859 24.5218 10.7943C24.6991 10.3997 24.9407 10.0581 25.2466 9.76931C25.5554 9.48056 25.9113 9.25755 26.3144 9.10031C26.7175 8.94021 27.1464 8.86015 27.601 8.86015C27.9383 8.86015 28.2728 8.9059 28.6045 8.99739C28.939 9.08602 29.2449 9.22182 29.5222 9.40479L29.0591 10.4984C28.8961 10.3383 28.686 10.2125 28.4286 10.121C28.1742 10.0266 27.904 9.97945 27.6181 9.97945C27.3408 9.97945 27.0749 10.0295 26.8205 10.1295C26.566 10.2296 26.3387 10.3726 26.1386 10.5584C25.9385 10.7442 25.7798 10.9658 25.6626 11.2231C25.5454 11.4776 25.4867 11.7606 25.4867 12.0722C25.4867 12.3781 25.5425 12.6612 25.654 12.9214C25.7684 13.1787 25.9242 13.4031 26.1214 13.5946C26.3216 13.7862 26.5517 13.9349 26.8119 14.0406C27.0721 14.1464 27.3508 14.1993 27.6481 14.1993C27.8197 14.1993 27.9941 14.1807 28.1713 14.1436C28.3515 14.1035 28.5201 14.0449 28.6774 13.9677C28.8346 13.8905 28.9676 13.7948 29.0762 13.6804L29.5394 14.7697C29.2678 14.9498 28.9633 15.087 28.6259 15.1814C28.2886 15.2729 27.9555 15.3186 27.6267 15.3186ZM32.9659 15.3186C32.5141 15.3186 32.0924 15.2371 31.7008 15.0742C31.3119 14.9112 30.9703 14.6825 30.6758 14.388C30.3813 14.0935 30.1512 13.7505 29.9854 13.3588C29.8224 12.9671 29.7409 12.5425 29.7409 12.0851C29.7409 11.6305 29.8224 11.2074 29.9854 10.8157C30.1512 10.424 30.3799 10.0824 30.6715 9.79076C30.966 9.49914 31.3076 9.27185 31.6965 9.10889C32.0882 8.94307 32.5084 8.86015 32.9573 8.86015C33.4147 8.86015 33.8379 8.94307 34.2267 9.10889C34.6184 9.27185 34.96 9.49914 35.2516 9.79076C35.5461 10.0824 35.7734 10.424 35.9335 10.8157C36.0965 11.2074 36.1779 11.6319 36.1779 12.0894C36.1779 12.544 36.0965 12.9671 35.9335 13.3588C35.7734 13.7505 35.5461 14.0935 35.2516 14.388C34.96 14.6825 34.6198 14.9112 34.231 15.0742C33.8421 15.2371 33.4204 15.3186 32.9659 15.3186ZM32.953 14.1993C33.2389 14.1993 33.5019 14.145 33.7421 14.0364C33.9851 13.9277 34.1967 13.7776 34.3768 13.5861C34.5598 13.3945 34.7013 13.1715 34.8013 12.9171C34.9014 12.6598 34.9514 12.3824 34.9514 12.0851C34.9514 11.782 34.9 11.5033 34.797 11.2488C34.697 10.9915 34.5555 10.7685 34.3725 10.5798C34.1924 10.3911 33.9808 10.2439 33.7378 10.1381C33.4948 10.0323 33.2332 9.97945 32.953 9.97945C32.6757 9.97945 32.4169 10.0323 32.1768 10.1381C31.9366 10.2439 31.7265 10.3911 31.5464 10.5798C31.3663 10.7685 31.2247 10.9915 31.1218 11.2488C31.0189 11.5033 30.9674 11.782 30.9674 12.0851C30.9674 12.3824 31.0175 12.6598 31.1175 12.9171C31.2204 13.1744 31.3605 13.3988 31.5378 13.5904C31.7179 13.7819 31.928 13.932 32.1682 14.0406C32.4112 14.1464 32.6728 14.1993 32.953 14.1993ZM39.4801 15.3186C38.9883 15.3186 38.5595 15.2171 38.1935 15.0141C37.8304 14.8111 37.5488 14.5267 37.3487 14.1607C37.1486 13.7919 37.0485 13.3602 37.0485 12.8656V8.92877H38.275V12.9514C38.275 13.2087 38.325 13.4331 38.4251 13.6247C38.528 13.8134 38.6695 13.9592 38.8497 14.0621C39.0326 14.165 39.2428 14.2165 39.4801 14.2165C39.8517 14.2165 40.1462 14.1007 40.3635 13.8691C40.5808 13.6375 40.6894 13.3316 40.6894 12.9514V8.92877H41.9159V12.8656C41.9159 13.3602 41.8159 13.7919 41.6157 14.1607C41.4185 14.5267 41.1383 14.8111 40.7752 15.0141C40.4121 15.2171 39.9804 15.3186 39.4801 15.3186ZM43.1639 15.25V8.92877H44.0602L46.7362 12.3638L47.2294 13.0543H47.268L47.2379 11.6262V8.92877H48.4645V15.25H47.5682L44.9093 11.7677L44.4033 11.073H44.3689L44.3904 12.5311V15.25H43.1639ZM50.8317 15.25V9.84651H52.0582V15.25H50.8317ZM49.2535 10.0309V8.92877H53.6321V10.0309H49.2535Z" fill="white"/>
</svg>
