<svg width="30" height="30" viewBox="0 0 30 30" fill="none" xmlns="http://www.w3.org/2000/svg">
<rect width="30" height="30" rx="8" fill="#656EEB"/>
<path d="M22.5625 20.8438H7.4375C6.89049 20.8438 6.36589 20.6265 5.97909 20.2397C5.5923 19.8529 5.375 19.3283 5.375 18.7812V9.15625C5.375 8.60924 5.5923 8.08464 5.97909 7.69784C6.36589 7.31105 6.89049 7.09375 7.4375 7.09375H22.5625C23.1095 7.09375 23.6341 7.31105 24.0209 7.69784C24.4077 8.08464 24.625 8.60924 24.625 9.15625V18.7812C24.625 19.3283 24.4077 19.8529 24.0209 20.2397C23.6341 20.6265 23.1095 20.8438 22.5625 20.8438ZM7.4375 8.46875C7.25516 8.46875 7.0803 8.54118 6.95136 8.67011C6.82243 8.79905 6.75 8.97391 6.75 9.15625V18.7812C6.75 18.9636 6.82243 19.1385 6.95136 19.2674C7.0803 19.3963 7.25516 19.4688 7.4375 19.4688H22.5625C22.7448 19.4688 22.9197 19.3963 23.0486 19.2674C23.1776 19.1385 23.25 18.9636 23.25 18.7812V9.15625C23.25 8.97391 23.1776 8.79905 23.0486 8.67011C22.9197 8.54118 22.7448 8.46875 22.5625 8.46875H7.4375ZM18.4375 22.9062H11.5625C11.3802 22.9062 11.2053 22.8338 11.0764 22.7049C10.9474 22.576 10.875 22.4011 10.875 22.2188C10.875 22.0364 10.9474 21.8615 11.0764 21.7326C11.2053 21.6037 11.3802 21.5312 11.5625 21.5312H18.4375C18.6198 21.5312 18.7947 21.6037 18.9236 21.7326C19.0526 21.8615 19.125 22.0364 19.125 22.2188C19.125 22.4011 19.0526 22.576 18.9236 22.7049C18.7947 22.8338 18.6198 22.9062 18.4375 22.9062Z" fill="white"/>
</svg>
