<svg width="73" height="69" viewBox="0 0 73 69" fill="none" xmlns="http://www.w3.org/2000/svg">
<path d="M72.0066 50.5684C72.5427 49.7573 72.485 48.7867 72.1579 47.8712C71.8307 46.9556 71.2616 46.2297 70.6925 45.5039C67.8194 41.7398 64.7566 37.7338 60.3547 36.106C57.1681 34.9319 53.6626 34.9456 50.212 35.2287C52.901 33.2767 56.3764 32.4272 59.6949 32.8726C57.1572 32.1275 54.4848 31.4098 51.8398 30.8269C44.9855 29.5592 37.8149 30.1804 30.801 29.5067C34.818 29.2483 38.6948 27.6152 42.6072 28.2202C39.0137 26.4275 34.939 25.7153 30.9221 25.9736C26.5368 21.6761 20.9418 18.3272 14.9755 16.5976C17.5078 15.9406 20.0702 16.1194 22.4732 16.892C18.6598 14.0215 13.5844 12.5312 8.65184 13.1167C8.65184 13.1167 17.4221 35.4644 51.2869 41.184C51.2869 41.184 10.9388 39.4537 0.486247 0.609272C-0.143325 -1.78826 1.58317 5.29711 2.21274 7.69464C2.62511 9.7155 3.17221 11.7089 3.04569 13.8397C2.91644 15.2694 2.65245 16.7266 2.38847 18.1838C1.78351 22.0963 2.44604 26.0307 3.37802 29.9102C4.20565 27.7767 5.03328 25.6431 6.45479 23.669C5.8442 33.0557 11.1669 42.6349 19.4894 46.9709C16.2946 43.6935 14.5516 39.2779 12.9707 34.9694C15.0135 40.1659 19.8002 43.6798 25.0928 45.5468C30.3855 47.4138 35.9146 47.6889 41.4712 48.0987C39.6567 46.0833 38.5954 43.6335 37.6414 41.0215C38.1583 42.179 38.9171 43.1469 39.6485 43.98C41.3283 46.0229 42.846 47.9585 44.9823 49.4872C48.3888 51.7391 52.7054 52.2616 56.8598 52.6769C54.6713 51.5798 52.59 50.3205 50.5884 48.7643C56.211 52.2479 63.0378 53.3809 69.4496 51.7918C70.4201 51.7341 71.4704 51.3795 72.0066 50.5684Z" fill="#656EEB"/>
</svg>
