<svg width="82" height="63" viewBox="0 0 82 63" fill="none" xmlns="http://www.w3.org/2000/svg">
<path d="M81.0961 15.7215C81.5961 15.9215 81.6961 16.3215 81.6961 16.5215C81.6961 16.7215 81.6961 17.1215 81.1961 17.3215L63.1961 24.6215L57.8961 20.5215L72.9961 13.0215L81.0961 15.7215Z" fill="url(#paint0_linear_463_1261)"/>
<path d="M81.0961 15.7215C81.5961 15.9215 81.6961 16.3215 81.6961 16.5215C81.6961 16.7215 81.6961 17.1215 81.1961 17.3215L63.1961 24.6215L57.8961 20.5215L72.9961 13.0215L81.0961 15.7215Z" fill="url(#paint1_linear_463_1261)"/>
<path d="M73.7961 1.02151C73.8961 1.12151 74.1961 1.42151 74.0961 1.92151L71.1961 10.5215L56.1961 18.0215L56.1961 10.8215L72.8961 0.921514C73.2961 0.721514 73.5961 0.921514 73.7961 1.02151Z" fill="url(#paint2_linear_463_1261)"/>
<path d="M73.7961 1.02151C73.8961 1.12151 74.1961 1.42151 74.0961 1.92151L71.1961 10.5215L56.1961 18.0215L56.1961 10.8215L72.8961 0.921514C73.2961 0.721514 73.5961 0.921514 73.7961 1.02151Z" fill="url(#paint3_linear_463_1261)"/>
<path d="M55.9961 21.3215C57.4961 24.9215 58.3961 28.8215 58.3961 32.9215C58.3961 49.0215 45.2961 62.1215 29.1961 62.1215C13.0961 62.1215 -0.00390689 49.0215 -0.00390668 32.9215C-0.00390646 16.8215 13.0961 3.72151 29.1961 3.72151C40.0961 3.72151 49.6961 9.72151 54.6961 18.6215L45.8961 23.0215C42.4961 17.3215 36.2961 13.5215 29.1961 13.5215C18.4961 13.5215 9.79609 22.2215 9.79609 32.9215C9.79609 43.6215 18.4961 52.3215 29.1961 52.3215C39.8961 52.3215 48.5961 43.6215 48.5961 32.9215C48.5961 30.3215 48.0961 27.9215 47.1961 25.6215L55.9961 21.3215Z" fill="url(#paint4_linear_463_1261)"/>
<path d="M55.9961 21.3215C57.4961 24.9215 58.3961 28.8215 58.3961 32.9215C58.3961 49.0215 45.2961 62.1215 29.1961 62.1215C13.0961 62.1215 -0.00390689 49.0215 -0.00390668 32.9215C-0.00390646 16.8215 13.0961 3.72151 29.1961 3.72151C40.0961 3.72151 49.6961 9.72151 54.6961 18.6215L45.8961 23.0215C42.4961 17.3215 36.2961 13.5215 29.1961 13.5215C18.4961 13.5215 9.79609 22.2215 9.79609 32.9215C9.79609 43.6215 18.4961 52.3215 29.1961 52.3215C39.8961 52.3215 48.5961 43.6215 48.5961 32.9215C48.5961 30.3215 48.0961 27.9215 47.1961 25.6215L55.9961 21.3215Z" fill="url(#paint5_linear_463_1261)"/>
<path d="M44.4961 26.9215C45.1961 28.7215 45.5961 30.7215 45.5961 32.8215C45.5961 41.9215 38.1961 49.2215 29.1961 49.2215C20.0961 49.2215 12.7961 41.8215 12.7961 32.8215C12.7961 23.7215 20.1961 16.4215 29.1961 16.4215C35.0961 16.4215 40.2961 19.5215 43.1961 24.2215L35.8961 27.8215C34.3961 25.7215 31.8961 24.4215 29.1961 24.4215C24.5961 24.4215 20.7961 28.2215 20.7961 32.8215C20.7961 37.4215 24.5961 41.2215 29.1961 41.2215C33.7961 41.2215 37.5961 37.4215 37.5961 32.8215C37.5961 32.0215 37.4961 31.2215 37.2961 30.5215L44.4961 26.9215Z" fill="url(#paint6_linear_463_1261)"/>
<path d="M44.4961 26.9215C45.1961 28.7215 45.5961 30.7215 45.5961 32.8215C45.5961 41.9215 38.1961 49.2215 29.1961 49.2215C20.0961 49.2215 12.7961 41.8215 12.7961 32.8215C12.7961 23.7215 20.1961 16.4215 29.1961 16.4215C35.0961 16.4215 40.2961 19.5215 43.1961 24.2215L35.8961 27.8215C34.3961 25.7215 31.8961 24.4215 29.1961 24.4215C24.5961 24.4215 20.7961 28.2215 20.7961 32.8215C20.7961 37.4215 24.5961 41.2215 29.1961 41.2215C33.7961 41.2215 37.5961 37.4215 37.5961 32.8215C37.5961 32.0215 37.4961 31.2215 37.2961 30.5215L44.4961 26.9215Z" fill="url(#paint7_linear_463_1261)"/>
<path d="M34.4961 31.9215C34.5961 32.2215 34.5961 32.5215 34.5961 32.9215C34.5961 35.9215 32.1961 38.3215 29.1961 38.3215C26.1961 38.3215 23.7961 35.9215 23.7961 32.9215C23.7961 29.9215 26.1961 27.5215 29.1961 27.5215C30.7961 27.5215 32.1961 28.2215 33.1961 29.3215L28.5961 31.6215C27.8961 32.0215 27.5961 32.9215 27.8961 33.6215C28.1961 34.1215 28.6961 34.4215 29.2961 34.4215C29.4961 34.4215 29.7961 34.4215 29.9961 34.2215L34.4961 31.9215Z" fill="url(#paint8_linear_463_1261)"/>
<path d="M34.4961 31.9215C34.5961 32.2215 34.5961 32.5215 34.5961 32.9215C34.5961 35.9215 32.1961 38.3215 29.1961 38.3215C26.1961 38.3215 23.7961 35.9215 23.7961 32.9215C23.7961 29.9215 26.1961 27.5215 29.1961 27.5215C30.7961 27.5215 32.1961 28.2215 33.1961 29.3215L28.5961 31.6215C27.8961 32.0215 27.5961 32.9215 27.8961 33.6215C28.1961 34.1215 28.6961 34.4215 29.2961 34.4215C29.4961 34.4215 29.7961 34.4215 29.9961 34.2215L34.4961 31.9215Z" fill="url(#paint9_linear_463_1261)"/>
<defs>
<linearGradient id="paint0_linear_463_1261" x1="106.5" y1="-27" x2="8.22995" y2="74.2379" gradientUnits="userSpaceOnUse">
<stop stop-color="#3C3ADA"/>
<stop offset="1" stop-color="#070C20"/>
</linearGradient>
<linearGradient id="paint1_linear_463_1261" x1="106.5" y1="-27" x2="8.22995" y2="74.2379" gradientUnits="userSpaceOnUse">
<stop stop-color="#3C3ADA"/>
<stop offset="1" stop-color="#070C20"/>
</linearGradient>
<linearGradient id="paint2_linear_463_1261" x1="106.5" y1="-27" x2="8.22995" y2="74.2379" gradientUnits="userSpaceOnUse">
<stop stop-color="#3C3ADA"/>
<stop offset="1" stop-color="#070C20"/>
</linearGradient>
<linearGradient id="paint3_linear_463_1261" x1="106.5" y1="-27" x2="8.22995" y2="74.2379" gradientUnits="userSpaceOnUse">
<stop stop-color="#3C3ADA"/>
<stop offset="1" stop-color="#070C20"/>
</linearGradient>
<linearGradient id="paint4_linear_463_1261" x1="106.5" y1="-27" x2="8.22995" y2="74.2379" gradientUnits="userSpaceOnUse">
<stop stop-color="#3C3ADA"/>
<stop offset="1" stop-color="#070C20"/>
</linearGradient>
<linearGradient id="paint5_linear_463_1261" x1="106.5" y1="-27" x2="8.22995" y2="74.2379" gradientUnits="userSpaceOnUse">
<stop stop-color="#3C3ADA"/>
<stop offset="1" stop-color="#070C20"/>
</linearGradient>
<linearGradient id="paint6_linear_463_1261" x1="106.5" y1="-27" x2="8.22995" y2="74.2379" gradientUnits="userSpaceOnUse">
<stop stop-color="#3C3ADA"/>
<stop offset="1" stop-color="#070C20"/>
</linearGradient>
<linearGradient id="paint7_linear_463_1261" x1="106.5" y1="-27" x2="8.22995" y2="74.2379" gradientUnits="userSpaceOnUse">
<stop stop-color="#3C3ADA"/>
<stop offset="1" stop-color="#070C20"/>
</linearGradient>
<linearGradient id="paint8_linear_463_1261" x1="106.5" y1="-27" x2="8.22995" y2="74.2379" gradientUnits="userSpaceOnUse">
<stop stop-color="#3C3ADA"/>
<stop offset="1" stop-color="#070C20"/>
</linearGradient>
<linearGradient id="paint9_linear_463_1261" x1="106.5" y1="-27" x2="8.22995" y2="74.2379" gradientUnits="userSpaceOnUse">
<stop stop-color="#3C3ADA"/>
<stop offset="1" stop-color="#070C20"/>
</linearGradient>
</defs>
</svg>
