<svg width="37" height="40" viewBox="0 0 37 40" fill="none" xmlns="http://www.w3.org/2000/svg">
<path d="M18.461 39.928C13.1019 39.9558 7.94449 37.8864 4.091 34.162C2.40013 32.533 1.0146 30.6143 0 28.497H1.42C2.34446 30.2685 3.55011 31.8784 4.99 33.264C8.60604 36.7481 13.4396 38.6824 18.461 38.655C23.4828 38.6816 28.3164 36.7462 31.932 33.261C33.371 31.8762 34.5759 30.2673 35.5 28.497H36.92C35.9054 30.6144 34.5199 32.533 32.829 34.162C28.976 37.8859 23.8194 39.9553 18.461 39.928ZM1.419 11.987H0C1.01448 9.86922 2.40001 7.95026 4.091 6.32096C7.94449 2.59655 13.1019 0.527126 18.461 0.554965C23.8201 0.527126 28.9775 2.59655 32.831 6.32096C34.5213 7.94947 35.9065 9.86738 36.921 11.984H35.502C34.5779 10.2124 33.3726 8.60254 31.933 7.21696C28.3169 3.73225 23.4828 1.79749 18.461 1.82496C13.4389 1.79803 8.60481 3.73352 4.989 7.21896C3.54914 8.60454 2.34349 10.2144 1.419 11.986V11.987Z" fill="white"/>
<path d="M18.4606 36.7312C16.1752 36.7352 13.911 36.2936 11.7946 35.4312C9.77154 34.611 7.92402 33.4115 6.35159 31.8972C4.79624 30.4076 3.54922 28.6264 2.68159 26.6552C1.65537 24.3152 1.20516 21.7633 1.36872 19.2134C1.53227 16.6635 2.30482 14.19 3.62159 12.0002C5.09696 9.55917 7.16578 7.53094 9.63559 6.10423C9.73559 6.12523 9.83559 6.14623 9.91959 6.16723C10.2285 6.23318 10.5105 6.39069 10.7286 6.61923C10.8292 6.73617 10.8981 6.87701 10.9286 7.02823C10.9804 7.23542 11.0155 7.44643 11.0336 7.65923C11.0546 7.89223 11.0686 8.13923 11.0756 8.39423C11.0826 8.64923 11.0866 8.90923 11.0866 9.16123V14.4762C11.0866 14.8952 11.0866 15.3082 11.0756 15.7052C11.0646 16.1022 11.0616 16.4722 11.0546 16.8052C11.0476 17.1382 11.0446 17.4152 11.0446 17.6052C11.0446 17.8282 11.0376 18.0612 11.0236 18.2982C11.0096 18.5352 10.9916 18.7672 10.9706 18.9702C10.953 19.1616 10.9216 19.3514 10.8766 19.5382C10.8487 19.6749 10.7914 19.8039 10.7086 19.9162C10.5078 20.1502 10.2456 20.3233 9.95159 20.4162C9.62328 20.5296 9.28565 20.6139 8.94259 20.6682V20.8782H13.4856C13.5829 20.8997 13.6777 20.9312 13.7686 20.9722C13.9416 21.0502 14.1034 21.1511 14.2496 21.2722C14.3709 21.3723 14.4758 21.4907 14.5606 21.6232C14.6336 21.7432 14.6906 21.8442 14.7306 21.9232C14.8106 22.0832 14.8846 22.2382 14.9516 22.3842C15.0186 22.5302 15.0816 22.6842 15.1416 22.8452C15.2096 23.0272 15.2756 23.1972 15.3416 23.3662C15.4226 23.5722 15.5066 23.7952 15.5916 24.0272C15.8966 24.8272 16.2116 25.6572 16.5546 26.5642C16.8739 27.4082 17.2029 28.2792 17.5416 29.1772L17.5466 29.1912L18.6096 32.0092C18.9436 32.8972 19.3276 33.9092 19.7826 35.0972H20.0236L20.9056 33.1322C21.1276 32.5182 21.3636 31.8602 21.6056 31.1772C21.8306 30.5472 22.0666 29.8772 22.3276 29.1212C22.5566 28.4582 22.7926 27.7862 23.0496 27.0662C23.2846 26.4092 23.5136 25.7582 23.7316 25.1312C24.0186 25.8982 24.2946 26.6642 24.5536 27.4072C24.8006 28.1162 25.0726 28.8932 25.3856 29.7842C25.6856 30.6312 25.9856 31.4842 26.2856 32.3312C26.5296 33.0162 26.7936 33.7412 27.0706 34.4872C24.4398 35.9594 21.4753 36.732 18.4606 36.7312ZM28.0246 33.9222L28.3476 33.1832C28.6006 32.4242 28.8766 31.6112 29.1696 30.7662C29.4916 29.8372 29.7766 29.0072 30.0416 28.2292C30.3416 27.3632 30.6246 26.5362 30.8946 25.7732C31.1746 24.9782 31.4246 24.2462 31.6366 23.5972C31.7696 23.2112 31.8976 22.8842 32.0176 22.6242C32.1171 22.4033 32.231 22.1892 32.3586 21.9832C32.4436 21.8466 32.5375 21.7156 32.6396 21.5912C32.7246 21.4912 32.7816 21.4292 32.8196 21.3912C32.9435 21.274 33.0819 21.1731 33.2316 21.0912C33.4913 20.9357 33.7823 20.8397 34.0836 20.8102V20.6102H29.6716V20.8102C29.8542 20.8274 30.0353 20.8575 30.2136 20.9002C30.4082 20.9444 30.5968 21.0115 30.7756 21.1002C30.9401 21.1807 31.0894 21.2894 31.2166 21.4212C31.3389 21.5548 31.4036 21.7313 31.3966 21.9122C31.3966 22.0472 31.3836 22.2562 31.3566 22.5332C31.289 22.9897 31.1816 23.4395 31.0356 23.8772C30.8866 24.3662 30.7206 24.8882 30.5446 25.4312C30.3999 25.8772 30.2549 26.3229 30.1096 26.7682L30.0026 27.0962C29.8306 27.6272 29.6486 28.1762 29.4616 28.7302C29.2846 29.2542 29.1156 29.7432 28.9616 30.1842C28.8076 30.6252 28.6796 30.9892 28.5806 31.2842C28.4816 31.5792 28.4096 31.7842 28.3696 31.8752L28.2606 31.5752L27.9186 30.6382C27.7256 30.1102 27.5056 29.4982 27.2266 28.7132C26.9476 27.9282 26.6886 27.2062 26.4266 26.4772C26.1486 25.7092 25.8926 24.9842 25.6646 24.3212C25.4366 23.6582 25.2496 23.0952 25.1026 22.6362C25.0056 22.3725 24.9316 22.1008 24.8816 21.8242C24.8813 21.727 24.9039 21.6312 24.9475 21.5443C24.9911 21.4575 25.0545 21.3821 25.1326 21.3242C25.3012 21.1898 25.4912 21.0847 25.6946 21.0132C25.8956 20.9409 26.1038 20.8902 26.3156 20.8622C26.5266 20.8352 26.6676 20.8152 26.7466 20.8022V20.6022H20.4666V20.8222C20.7452 20.8291 21.0216 20.8732 21.2886 20.9532C21.4931 21.0155 21.6863 21.1104 21.8606 21.2342C21.9979 21.3323 22.1197 21.4507 22.2216 21.5852C22.3007 21.6932 22.3713 21.8072 22.4326 21.9262C22.6166 22.3082 22.7926 22.7092 22.9536 23.1192C23.1216 23.5472 23.3036 24.0192 23.4946 24.5332C23.2006 25.4562 22.9036 26.3502 22.6126 27.1902C22.3066 28.0722 22.0446 28.8202 21.8126 29.4772C21.5886 30.1052 21.3866 30.6772 21.2126 31.1612C21.0576 31.5942 20.9536 31.8812 20.9126 31.9932C20.7676 31.5932 20.5776 31.0932 20.3306 30.4592C20.0786 29.8072 19.8186 29.1322 19.5586 28.4542C19.2836 27.7352 19.0066 27.0032 18.7366 26.2782C18.4526 25.5172 18.2066 24.8512 17.9846 24.2432C17.7626 23.6352 17.5736 23.0942 17.4326 22.6582C17.3314 22.3897 17.261 22.1106 17.2226 21.8262C17.2125 21.6276 17.2807 21.433 17.4126 21.2842C17.539 21.1518 17.6934 21.0493 17.8646 20.9842C18.0261 20.9206 18.1936 20.8734 18.3646 20.8432C18.4772 20.8218 18.5911 20.8085 18.7056 20.8032V20.6032H15.0636C14.8052 20.5615 14.5555 20.4774 14.3246 20.3542C14.0668 20.2272 13.8435 20.0399 13.6736 19.8082C13.5248 19.5677 13.4449 19.291 13.4426 19.0082C13.4296 18.7082 13.4166 18.3442 13.4006 17.8532C13.4006 17.6162 13.4006 17.3932 13.3896 17.1912C13.3786 16.9892 13.3786 16.7662 13.3786 16.5302V14.5602H14.5136C14.9436 14.5602 15.3926 14.5422 15.8476 14.5072C16.3026 14.4722 16.7566 14.4192 17.2026 14.3492C17.6315 14.2837 18.0533 14.1782 18.4626 14.0342C18.8524 13.8885 19.2258 13.7021 19.5766 13.4782C19.9362 13.2522 20.2596 12.9731 20.5356 12.6502C20.8149 12.3174 21.0384 11.9415 21.1976 11.5372C21.3705 11.0886 21.4561 10.611 21.4496 10.1302C21.4667 9.35612 21.2529 8.59444 20.8356 7.94223C20.4504 7.34628 19.9233 6.85527 19.3016 6.51323C18.6784 6.16556 17.9944 5.9405 17.2866 5.85023C16.4709 5.75382 15.65 5.7084 14.8286 5.71423H13.8826C13.5196 5.71423 13.1276 5.71423 12.7166 5.72523C12.3056 5.73623 11.8846 5.73623 11.4666 5.73623C11.0486 5.73623 10.6666 5.73623 10.3006 5.74623H10.2866C12.5631 4.56485 15.0684 3.89056 17.6304 3.76972C20.1923 3.64889 22.75 4.08437 25.1276 5.04623C27.1507 5.86641 28.9982 7.06596 30.5706 8.58023C32.1259 10.0699 33.373 11.8511 34.2406 13.8222C35.1315 15.8448 35.5899 18.0312 35.5866 20.2412C35.5711 22.9718 34.8709 25.6548 33.5502 28.0448C32.2294 30.4347 30.3303 32.4552 28.0266 33.9212L28.0246 33.9222ZM13.3796 14.2662V11.5762C13.3796 10.9072 13.3796 10.2142 13.3906 9.51723C13.4016 8.82023 13.4086 8.21723 13.4226 7.73123C13.4356 7.41623 13.4496 7.16523 13.4646 6.98523C13.4796 6.80523 13.4916 6.67623 13.5066 6.57623C13.5171 6.49416 13.5349 6.41318 13.5596 6.33423C13.5827 6.26232 13.6004 6.18878 13.6126 6.11423L14.0016 6.06123C14.2284 6.03686 14.4565 6.0265 14.6846 6.03023C15.0781 6.02943 15.4712 6.0575 15.8606 6.11423C16.4103 6.19142 16.9366 6.38742 17.4028 6.6886C17.8691 6.98978 18.2642 7.38891 18.5606 7.85823C18.9769 8.50227 19.1927 9.25542 19.1806 10.0222C19.1894 10.871 18.9401 11.7024 18.4656 12.4062C17.9677 13.1287 17.2432 13.6646 16.4066 13.9292C15.9526 14.087 15.4793 14.1825 14.9996 14.2132C14.4926 14.2502 13.9486 14.2662 13.3796 14.2662Z" fill="white"/>
</svg>
