<svg width="44" height="37" viewBox="0 0 44 37" fill="none" xmlns="http://www.w3.org/2000/svg">
<path d="M31.8714 10.8086C34.5028 10.8086 36.636 8.67538 36.636 6.04397C36.636 3.41257 34.5028 1.2794 31.8714 1.2794C29.24 1.2794 27.1068 3.41257 27.1068 6.04397C27.1068 8.67538 29.24 10.8086 31.8714 10.8086Z" fill="white"/>
<path d="M42.6646 26.9481C42.3236 26.9481 42.0169 27.1447 41.8942 27.446C41.5533 28.2849 40.6729 29.9104 38.9211 30.1413C36.5469 30.4552 33.729 29.3565 33.2888 25.3244C33.0308 22.9791 33.4096 16.6955 33.7723 11.8515C33.1733 12.0482 32.5347 12.1564 31.8708 12.1564C30.5772 12.1564 29.3775 11.7523 28.3889 11.0649C27.66 17.0924 26.7075 26.3671 27.3245 29.3547C28.2626 33.91 30.0306 36.6179 35.1668 36.4682C39.8917 36.3293 42.5599 31.6675 43.4728 27.9042C43.5919 27.4135 43.1968 26.9463 42.6646 26.9463V26.9481Z" fill="white"/>
<path d="M13.2528 0.334011C13.2528 0.334011 7.09908 -0.0376303 4.83676 3.09065C3.3502 5.1473 2.62496 7.75239 2.30203 9.29668C2.16131 9.96419 2.56182 10.6191 3.10845 10.6191C3.44221 10.6191 3.7471 10.3683 3.87519 9.97682C4.28291 8.73561 5.59809 6.12511 9.41552 6.01686C9.33614 8.14929 8.77868 18.7681 5.50608 23.2296C1.86184 28.2034 -2.66821 32.4954 1.97188 35.6363C6.61017 38.7772 10.9742 32.6 11.5822 24.119C11.768 21.5229 11.9737 18.705 12.1685 16.0457C13.8157 17.6514 16.0654 18.6436 18.5478 18.6436C22.5871 18.6436 26.0131 16.0223 27.2236 12.3889C27.3607 11.7665 27.4401 10.7201 26.8411 9.66652C26.6409 9.31472 26.4821 8.97556 26.3486 8.64902C25.9752 7.85883 25.7641 6.97663 25.7641 6.04392C25.7641 3.43162 27.4058 1.20899 29.7132 0.334011H13.2528ZM18.9501 15.0878C15.8597 15.0878 13.3538 12.5819 13.3538 9.48972C13.3538 6.39933 15.8597 3.89346 18.9519 3.89346C22.0423 3.89346 24.5481 6.39933 24.5481 9.49152C24.5481 12.5819 22.0423 15.0878 18.9501 15.0878Z" fill="white"/>
</svg>
