<svg width="30" height="30" viewBox="0 0 30 30" fill="none" xmlns="http://www.w3.org/2000/svg">
<rect width="30" height="30" rx="8" fill="#656EEB"/>
<path d="M20.5 12.9375H9.5C9.31766 12.9375 9.1428 12.8651 9.01386 12.7361C8.88493 12.6072 8.8125 12.4323 8.8125 12.25C8.8125 8.83862 11.5886 6.0625 15 6.0625C18.4114 6.0625 21.1875 8.83862 21.1875 12.25C21.1875 12.4323 21.1151 12.6072 20.9861 12.7361C20.8572 12.8651 20.6823 12.9375 20.5 12.9375ZM10.2363 11.5625H19.7644C19.4289 9.23325 17.42 7.4375 15 7.4375C12.58 7.4375 10.5711 9.23325 10.2363 11.5625Z" fill="white"/>
<path d="M17.75 8.12564C17.614 8.12561 17.4812 8.08527 17.3681 8.00972C17.2551 7.93418 17.167 7.82682 17.115 7.70121C17.0629 7.5756 17.0493 7.43739 17.0758 7.30405C17.1024 7.17071 17.1678 7.04822 17.2639 6.95207L18.6389 5.57707C18.7024 5.51141 18.7782 5.45903 18.8621 5.423C18.946 5.38697 19.0362 5.36801 19.1275 5.36721C19.2188 5.36642 19.3093 5.38382 19.3938 5.41838C19.4783 5.45295 19.555 5.504 19.6196 5.56855C19.6841 5.6331 19.7352 5.70986 19.7698 5.79435C19.8043 5.87885 19.8217 5.96938 19.8209 6.06066C19.8201 6.15195 19.8012 6.24216 19.7651 6.32604C19.7291 6.40992 19.6767 6.48578 19.6111 6.5492L18.2361 7.9242C18.1723 7.98813 18.0965 8.03884 18.0131 8.07341C17.9297 8.10798 17.8403 8.12573 17.75 8.12564ZM12.25 8.12564C12.1597 8.12573 12.0703 8.10798 11.9869 8.07341C11.9035 8.03884 11.8277 7.98813 11.7639 7.9242L10.3889 6.5492C10.3233 6.48578 10.2709 6.40992 10.2349 6.32604C10.1988 6.24216 10.1799 6.15195 10.1791 6.06066C10.1783 5.96938 10.1957 5.87885 10.2302 5.79435C10.2648 5.70986 10.3159 5.6331 10.3804 5.56855C10.445 5.504 10.5217 5.45295 10.6062 5.41838C10.6907 5.38382 10.7812 5.36642 10.8725 5.36721C10.9638 5.36801 11.054 5.38697 11.1379 5.423C11.2218 5.45903 11.2976 5.51141 11.3611 5.57707L12.7361 6.95207C12.8322 7.04822 12.8976 7.17071 12.9242 7.30405C12.9507 7.43739 12.9371 7.5756 12.885 7.70121C12.833 7.82682 12.7449 7.93418 12.6319 8.00972C12.5188 8.08527 12.386 8.12561 12.25 8.12564ZM12.9581 10.8756C12.5786 10.8756 12.2672 10.5676 12.2672 10.1881C12.2672 9.80864 12.5718 9.50064 12.9513 9.50064H12.9581C13.1405 9.50064 13.3153 9.57307 13.4443 9.702C13.5732 9.83093 13.6456 10.0058 13.6456 10.1881C13.6456 10.3705 13.5732 10.5453 13.4443 10.6743C13.3153 10.8032 13.1405 10.8756 12.9581 10.8756ZM17.0831 10.8756C16.7036 10.8756 16.3922 10.5676 16.3922 10.1881C16.3922 9.80864 16.6968 9.50064 17.0763 9.50064H17.0831C17.2655 9.50064 17.4403 9.57307 17.5693 9.702C17.6982 9.83093 17.7706 10.0058 17.7706 10.1881C17.7706 10.3705 17.6982 10.5453 17.5693 10.6743C17.4403 10.8032 17.2655 10.8756 17.0831 10.8756ZM6.75 21.1881C6.56766 21.1881 6.3928 21.1157 6.26386 20.9868C6.13493 20.8578 6.0625 20.683 6.0625 20.5006V14.3131C6.0625 14.1308 6.13493 13.9559 6.26386 13.827C6.3928 13.6981 6.56766 13.6256 6.75 13.6256C6.93234 13.6256 7.1072 13.6981 7.23614 13.827C7.36507 13.9559 7.4375 14.1308 7.4375 14.3131V20.5006C7.4375 20.683 7.36507 20.8578 7.23614 20.9868C7.1072 21.1157 6.93234 21.1881 6.75 21.1881ZM23.25 21.1881C23.0677 21.1881 22.8928 21.1157 22.7639 20.9868C22.6349 20.8578 22.5625 20.683 22.5625 20.5006V14.3131C22.5625 14.1308 22.6349 13.9559 22.7639 13.827C22.8928 13.6981 23.0677 13.6256 23.25 13.6256C23.4323 13.6256 23.6072 13.6981 23.7361 13.827C23.8651 13.9559 23.9375 14.1308 23.9375 14.3131V20.5006C23.9375 20.683 23.8651 20.8578 23.7361 20.9868C23.6072 21.1157 23.4323 21.1881 23.25 21.1881ZM15.6875 24.6256H14.3125C10.7719 24.6256 8.125 20.9956 8.125 17.7506V14.3131C8.125 14.1308 8.19743 13.9559 8.32636 13.827C8.4553 13.6981 8.63016 13.6256 8.8125 13.6256H21.1875C21.3698 13.6256 21.5447 13.6981 21.6736 13.827C21.8026 13.9559 21.875 14.1308 21.875 14.3131V17.7506C21.875 20.9956 19.2281 24.6256 15.6875 24.6256ZM9.5 15.0006V17.7506C9.5 20.2944 11.6024 23.2506 14.3125 23.2506H15.6875C18.3976 23.2506 20.5 20.2944 20.5 17.7506V15.0006H9.5Z" fill="white"/>
</svg>
