<svg width="171" height="58" viewBox="0 0 171 58" fill="none" xmlns="http://www.w3.org/2000/svg">
<path d="M44.3816 22.3653C46.7153 22.3653 48.6072 20.4734 48.6072 18.1397C48.6072 15.8059 46.7153 13.9141 44.3816 13.9141C42.0479 13.9141 40.156 15.8059 40.156 18.1397C40.156 20.4734 42.0479 22.3653 44.3816 22.3653Z" fill="#E7E7E7"/>
<path d="M53.9545 36.6802C53.6521 36.6802 53.38 36.8546 53.2712 37.1218C52.9688 37.8658 52.1881 39.3074 50.6345 39.5122C48.5289 39.7906 46.0297 38.8162 45.6393 35.2402C45.4105 33.1602 45.7464 27.5874 46.068 23.2914C45.5368 23.4658 44.9704 23.5618 44.3816 23.5618C43.2344 23.5618 42.1705 23.2034 41.2937 22.5938C40.6473 27.9394 39.8025 36.165 40.3497 38.8146C41.1817 42.8546 42.7497 45.2562 47.3049 45.1234C51.4953 45.0002 53.8616 40.8658 54.6712 37.5282C54.7768 37.093 54.4265 36.6786 53.9545 36.6786V36.6802Z" fill="#E7E7E7"/>
<path d="M42.4632 13.0746H27.8696C27.8696 13.0746 22.412 12.745 20.4056 15.5195C19.0872 17.3435 18.444 19.6539 18.1576 21.0235C18.0328 21.6155 18.388 22.1963 18.8728 22.1963C19.1688 22.1963 19.4392 21.9739 19.5528 21.6267C19.9144 20.5259 21.0808 18.2107 24.4664 18.1147C24.396 20.0059 23.9016 29.4235 20.9992 33.3803C17.7672 37.7915 13.7496 41.5979 17.8648 44.3836C21.9784 47.1692 25.8488 41.6907 26.388 34.1691C26.5528 31.8667 26.7352 29.3675 26.908 27.0091C28.3688 28.4331 30.364 29.3131 32.5656 29.3131C36.148 29.3131 39.1864 26.9883 40.26 23.7659C40.3816 23.2139 40.452 22.2859 39.9208 21.3515C39.7432 21.0395 39.6024 20.7387 39.484 20.4491C39.1528 19.7483 38.9656 18.9659 38.9656 18.1387C38.9656 15.8219 40.4216 13.8507 42.468 13.0746H42.4632ZM32.9224 26.1595C30.1816 26.1595 27.9592 23.9371 27.9592 21.1947C27.9592 18.4539 30.1816 16.2315 32.924 16.2315C35.6648 16.2315 37.8872 18.4539 37.8872 21.1963C37.8872 23.9371 35.6648 26.1595 32.9224 26.1595Z" fill="#E7E7E7"/>
<path fill-rule="evenodd" clip-rule="evenodd" d="M152.085 14.8516H60.7685C59.002 14.8516 57.5701 16.2835 57.5701 18.05V41.9333C57.5701 43.6997 59.002 45.1317 60.7685 45.1317H152.085C153.852 45.1317 155.284 43.6997 155.284 41.9333V18.05C155.284 16.2835 153.852 14.8516 152.085 14.8516ZM72.9131 27.7891C73.0298 27.5695 73.2693 27.4309 73.5309 27.4309H77.1983C77.3827 27.4309 77.5639 27.3513 77.7404 27.1936C77.9989 26.9445 78.1281 26.6275 78.1281 26.2413C78.1281 25.8551 77.9989 25.547 77.7404 25.2993C77.5639 25.1401 77.3827 25.0605 77.1983 25.0605H71.4254C71.044 25.0605 70.7351 25.3494 70.7351 25.7062V37.0452C70.7351 37.402 70.4262 37.6909 70.0448 37.6909H66.5445C66.1631 37.6909 65.8542 37.402 65.8542 37.0452V21.7629C65.8542 21.4061 66.1631 21.1172 66.5445 21.1172H77.1983C78.6293 21.1172 79.8507 21.4489 80.8609 22.1108C81.775 22.7314 82.3991 23.5466 82.7316 24.5534C83.0484 25.519 83.031 26.4831 82.6764 27.4412C82.4747 28.0132 82.3013 28.4392 82.1595 28.7178C82.046 28.9404 82.0791 29.1999 82.2446 29.3915C82.4921 29.6805 82.7883 30.1654 83.1303 30.848C83.6315 31.8209 83.7544 32.8351 83.496 33.8921C83.2454 34.9888 82.6465 35.8807 81.7025 36.5632C80.6765 37.315 79.3999 37.6924 77.8728 37.6924H72.0905C71.5751 37.6924 71.2426 37.1838 71.4743 36.7548L72.9116 34.1014C73.0298 33.8847 73.2677 33.7476 73.5278 33.7476H77.8744C78.0588 33.7476 78.24 33.668 78.4165 33.5103C78.675 33.2611 78.8042 32.9442 78.8042 32.558C78.8042 32.1717 78.675 31.8637 78.4165 31.616C78.24 31.4568 78.0588 31.3772 77.8744 31.3772H72.1173C71.6051 31.3772 71.271 30.873 71.4995 30.4426L72.9131 27.7891ZM137.411 21.1393H137.378L137.379 21.1378V21.1172H133.189C132.807 21.1172 132.498 21.4061 132.498 21.7629V37.0453C132.498 37.402 132.807 37.6909 133.189 37.6909H136.722C137.103 37.6909 137.412 37.402 137.412 37.0453V33.1683C137.412 32.5875 138.17 32.3015 138.601 32.7216L143.494 37.4934C143.625 37.6202 143.804 37.6924 143.992 37.6924H148.312C148.912 37.6924 149.226 37.0231 148.819 36.6089L141.429 29.0952C141.18 28.8417 141.187 28.4525 141.444 28.2063L147.708 22.2154C148.135 21.8071 147.826 21.1187 147.215 21.1187H142.812C142.621 21.1187 142.44 21.1924 142.309 21.3221L138.604 24.9986C138.175 25.4231 137.411 25.1401 137.411 24.5549V21.1393ZM88.574 35.4563C86.8546 33.8554 85.9957 32.0776 85.9957 30.1243H85.9846C85.9846 27.1422 86.8483 24.8484 88.574 23.2401C90.3816 21.5493 92.9489 20.7031 96.2775 20.7031C99.606 20.7031 102.173 21.5522 103.981 23.2504C105.7 24.8513 106.559 26.9019 106.559 29.4005C106.559 31.8992 105.703 33.848 103.992 35.4563C102.176 37.1545 99.606 38.0036 96.2775 38.0036C92.9489 38.0036 90.3816 37.1545 88.574 35.4563ZM100.295 32.878C101.217 32.0216 101.678 30.8629 101.678 29.3991C101.678 27.9352 101.217 26.6763 100.295 25.8066C99.461 25.0341 98.1214 24.6464 96.2775 24.6464C94.4335 24.6464 93.0892 25.0371 92.2492 25.8169C91.3272 26.6793 90.8655 27.8733 90.8655 29.3991C90.8655 30.9248 91.3257 32.0186 92.2492 32.8884C93.0908 33.6682 94.4335 34.0573 96.2775 34.0573C98.1214 34.0573 99.4547 33.6638 100.295 32.878ZM109.236 30.1243C109.236 32.0776 110.095 33.8554 111.815 35.4563C113.622 37.1545 116.19 38.0036 119.518 38.0036C122.847 38.0036 125.417 37.1545 127.233 35.4563C128.944 33.848 129.8 31.8992 129.8 29.4005C129.8 26.9019 128.941 24.8513 127.222 23.2504C125.414 21.5522 122.847 20.7031 119.518 20.7031C116.19 20.7031 113.622 21.5493 111.815 23.2401C110.089 24.8484 109.225 27.1422 109.225 30.1243H109.236ZM124.919 29.3991C124.919 30.8629 124.457 32.0216 123.535 32.878C122.695 33.6638 121.362 34.0573 119.518 34.0573C117.674 34.0573 116.332 33.6682 115.49 32.8884C114.566 32.0186 114.106 30.9248 114.106 29.3991C114.106 27.8733 114.568 26.6793 115.49 25.8169C116.33 25.0371 117.674 24.6464 119.518 24.6464C121.362 24.6464 122.702 25.0341 123.535 25.8066C124.457 26.6763 124.919 27.9352 124.919 29.3991Z" fill="#E7E7E7"/>
</svg>
