<svg width="56" height="54" viewBox="0 0 56 54" fill="none" xmlns="http://www.w3.org/2000/svg">
<path d="M46.6272 20.6121C49.8482 21.4751 53.159 19.5636 54.0221 16.3426C54.8851 13.1216 52.9736 9.8108 49.7526 8.94773C46.5316 8.08467 43.2208 9.99616 42.3577 13.2172C41.4947 16.4382 43.4062 19.749 46.6272 20.6121Z" fill="url(#paint0_linear_463_1063)"/>
<path d="M54.5452 43.9079C54.1278 43.7961 53.6879 43.9362 53.4389 44.2648C52.7464 45.1798 51.1356 46.8807 48.9156 46.5888C45.9065 46.1944 42.8175 43.9253 43.6011 38.8453C44.0546 35.8899 46.5792 28.3226 48.6119 22.5122C47.8142 22.5564 46.997 22.4795 46.1843 22.2617C44.6009 21.8375 43.265 20.9493 42.2803 19.7837C39.4112 26.9226 35.2032 37.9631 34.9785 41.8225C34.6328 47.7062 35.9087 51.6007 42.2449 53.1021C48.0741 54.4817 52.8692 49.6506 55.2209 45.3434C55.5276 44.7818 55.1972 44.0803 54.5458 43.9057L54.5452 43.9079Z" fill="url(#paint1_linear_463_1063)"/>
<path d="M27.2723 1.68384C27.2723 1.68384 19.8616 -0.789421 16.0663 2.29779C13.5721 4.32769 11.8299 7.27863 10.9281 9.06303C10.537 9.83395 10.8124 10.7669 11.4815 10.9462C11.8901 11.0557 12.3455 10.8487 12.6307 10.4115C13.5369 9.02595 16.003 6.26188 20.7113 7.38145C19.9147 9.96565 15.7495 22.781 10.2803 27.1688C4.18813 32.0618 -2.76465 35.8296 1.88496 41.1962C6.53236 46.5622 13.9003 40.4322 17.4262 30.2503C18.5051 27.1335 19.6811 23.7516 20.7918 20.5604C22.2814 23.0661 24.7097 25.0185 27.7483 25.8327C32.6928 27.1576 37.7461 25.0726 40.4196 21.0221C40.7916 20.3052 41.232 19.0504 40.8444 17.5643C40.7146 17.068 40.6315 16.6007 40.5752 16.1572C40.3773 15.0675 40.4082 13.9184 40.7142 12.7767C41.571 9.57907 44.3095 7.39689 47.4209 7.08266L27.2723 1.68384ZM29.4071 21.6121C25.6242 20.5985 23.3788 16.7092 24.393 12.9242C25.4066 9.14133 29.2958 6.89588 33.0809 7.91008C36.8637 8.92369 39.1092 12.8129 38.095 16.598C37.0814 20.3808 33.1921 22.6263 29.4071 21.6121Z" fill="url(#paint2_linear_463_1063)"/>
<defs>
<linearGradient id="paint0_linear_463_1063" x1="35.9995" y1="-12" x2="12.4995" y2="91.5" gradientUnits="userSpaceOnUse">
<stop stop-color="#53207F"/>
<stop offset="1" stop-color="#070C20"/>
</linearGradient>
<linearGradient id="paint1_linear_463_1063" x1="35.9995" y1="-12" x2="12.4995" y2="91.5" gradientUnits="userSpaceOnUse">
<stop stop-color="#53207F"/>
<stop offset="1" stop-color="#070C20"/>
</linearGradient>
<linearGradient id="paint2_linear_463_1063" x1="35.9995" y1="-12" x2="12.4995" y2="91.5" gradientUnits="userSpaceOnUse">
<stop stop-color="#53207F"/>
<stop offset="1" stop-color="#070C20"/>
</linearGradient>
</defs>
</svg>
