<svg width="30" height="30" viewBox="0 0 30 30" fill="none" xmlns="http://www.w3.org/2000/svg">
<rect width="30" height="30" rx="8" fill="#656EEB"/>
<path d="M19.226 21.2622H10.7743C9.57438 21.2622 8.95166 20.5209 8.95166 19.4597V11.0077C8.95166 9.93429 9.60769 8.73438 10.7743 8.73438H19.226C20.3923 8.73438 21.4794 9.9346 21.4794 11.0077V19.4594C21.4794 20.5209 20.4259 21.2622 19.226 21.2622ZM10.7743 9.9566C10.3777 9.9566 10.1739 10.4971 10.1739 11.0077V19.4594C10.1739 19.9642 10.4697 20.0396 10.7743 20.0396H19.226C19.5306 20.0396 20.2572 19.9642 20.2572 19.4594V11.0077C20.2572 10.4968 19.6226 9.9566 19.226 9.9566H10.7743Z" fill="white"/>
<path d="M15.4581 11.487H15.1526C15.0715 11.487 14.9938 11.4548 14.9365 11.3975C14.8792 11.3402 14.847 11.2625 14.847 11.1814C14.847 11.1004 14.8792 11.0227 14.9365 10.9654C14.9938 10.9081 15.0715 10.8759 15.1526 10.8759H15.4581C15.5392 10.8759 15.6169 10.9081 15.6742 10.9654C15.7315 11.0227 15.7637 11.1004 15.7637 11.1814C15.7637 11.2625 15.7315 11.3402 15.6742 11.3975C15.6169 11.4548 15.5392 11.487 15.4581 11.487ZM11.0902 13.9314C11.0092 13.9314 10.9314 13.8992 10.8741 13.8419C10.8168 13.7846 10.7846 13.7069 10.7846 13.6259V12.9155C10.7846 11.9129 10.5692 10.8759 12.2687 10.8759H13.9303C14.0114 10.8759 14.0891 10.9081 14.1464 10.9654C14.2037 11.0227 14.2359 11.1004 14.2359 11.1814C14.2359 11.2625 14.2037 11.3402 14.1464 11.3975C14.0891 11.4548 14.0114 11.487 13.9303 11.487H12.2687C11.18 11.487 11.3958 11.8469 11.3958 12.9155V13.6259C11.3958 13.7069 11.3636 13.7846 11.3063 13.8419C11.249 13.8992 11.1712 13.9314 11.0902 13.9314ZM24.6248 11.1814H23.097C22.9349 11.1814 22.7795 11.117 22.6649 11.0024C22.5503 10.8878 22.4859 10.7324 22.4859 10.5703C22.4859 10.4082 22.5503 10.2528 22.6649 10.1382C22.7795 10.0236 22.9349 9.9592 23.097 9.9592H24.6248C24.7869 9.9592 24.9423 10.0236 25.0569 10.1382C25.1715 10.2528 25.2359 10.4082 25.2359 10.5703C25.2359 10.7324 25.1715 10.8878 25.0569 11.0024C24.9423 11.117 24.7869 11.1814 24.6248 11.1814ZM24.6248 14.5425H23.097C22.9349 14.5425 22.7795 14.4782 22.6649 14.3635C22.5503 14.2489 22.4859 14.0935 22.4859 13.9314C22.4859 13.7693 22.5503 13.6139 22.6649 13.4993C22.7795 13.3847 22.9349 13.3203 23.097 13.3203H24.6248C24.7869 13.3203 24.9423 13.3847 25.0569 13.4993C25.1715 13.6139 25.2359 13.7693 25.2359 13.9314C25.2359 14.0935 25.1715 14.2489 25.0569 14.3635C24.9423 14.4782 24.7869 14.5425 24.6248 14.5425ZM24.6248 17.5981H23.097C22.9349 17.5981 22.7795 17.5337 22.6649 17.4191C22.5503 17.3045 22.4859 17.1491 22.4859 16.987C22.4859 16.8249 22.5503 16.6695 22.6649 16.5549C22.7795 16.4403 22.9349 16.3759 23.097 16.3759H24.6248C24.7869 16.3759 24.9423 16.4403 25.0569 16.5549C25.1715 16.6695 25.2359 16.8249 25.2359 16.987C25.2359 17.1491 25.1715 17.3045 25.0569 17.4191C24.9423 17.5337 24.7869 17.5981 24.6248 17.5981ZM24.6248 20.3481H23.097C22.9349 20.3481 22.7795 20.2837 22.6649 20.1691C22.5503 20.0545 22.4859 19.8991 22.4859 19.737C22.4859 19.5749 22.5503 19.4195 22.6649 19.3049C22.7795 19.1903 22.9349 19.1259 23.097 19.1259H24.6248C24.7869 19.1259 24.9423 19.1903 25.0569 19.3049C25.1715 19.4195 25.2359 19.5749 25.2359 19.737C25.2359 19.8991 25.1715 20.0545 25.0569 20.1691C24.9423 20.2837 24.7869 20.3481 24.6248 20.3481ZM10.4791 7.82031C10.317 7.82031 10.1616 7.75593 10.047 7.64132C9.93236 7.52672 9.86798 7.37128 9.86798 7.2092V5.68142C9.86798 5.51935 9.93236 5.36391 10.047 5.2493C10.1616 5.1347 10.317 5.07031 10.4791 5.07031C10.6412 5.07031 10.7966 5.1347 10.9112 5.2493C11.0258 5.36391 11.0902 5.51935 11.0902 5.68142V7.2092C11.0902 7.37128 11.0258 7.52672 10.9112 7.64132C10.7966 7.75593 10.6412 7.82031 10.4791 7.82031ZM13.5346 7.82031C13.3726 7.82031 13.2171 7.75593 13.1025 7.64132C12.9879 7.52672 12.9235 7.37128 12.9235 7.2092V5.68142C12.9235 5.51935 12.9879 5.36391 13.1025 5.2493C13.2171 5.1347 13.3726 5.07031 13.5346 5.07031C13.6967 5.07031 13.8522 5.1347 13.9668 5.2493C14.0814 5.36391 14.1458 5.51935 14.1458 5.68142V7.2092C14.1458 7.37128 14.0814 7.52672 13.9668 7.64132C13.8522 7.75593 13.6967 7.82031 13.5346 7.82031ZM16.8958 7.82031C16.7337 7.82031 16.5782 7.75593 16.4636 7.64132C16.349 7.52672 16.2846 7.37128 16.2846 7.2092V5.68142C16.2846 5.51935 16.349 5.36391 16.4636 5.2493C16.5782 5.1347 16.7337 5.07031 16.8958 5.07031C17.0578 5.07031 17.2133 5.1347 17.3279 5.2493C17.4425 5.36391 17.5069 5.51935 17.5069 5.68142V7.2092C17.5069 7.37128 17.4425 7.52672 17.3279 7.64132C17.2133 7.75593 17.0578 7.82031 16.8958 7.82031ZM19.6458 7.82031C19.4837 7.82031 19.3282 7.75593 19.2136 7.64132C19.099 7.52672 19.0346 7.37128 19.0346 7.2092V5.68142C19.0346 5.51935 19.099 5.36391 19.2136 5.2493C19.3282 5.1347 19.4837 5.07031 19.6458 5.07031C19.8078 5.07031 19.9633 5.1347 20.0779 5.2493C20.1925 5.36391 20.2569 5.51935 20.2569 5.68142V7.2092C20.2569 7.37128 20.1925 7.52672 20.0779 7.64132C19.9633 7.75593 19.8078 7.82031 19.6458 7.82031ZM10.4791 24.9314C10.317 24.9314 10.1616 24.867 10.047 24.7524C9.93236 24.6378 9.86798 24.4824 9.86798 24.3203V22.7925C9.86798 22.6305 9.93236 22.475 10.047 22.3604C10.1616 22.2458 10.317 22.1814 10.4791 22.1814C10.6412 22.1814 10.7966 22.2458 10.9112 22.3604C11.0258 22.475 11.0902 22.6305 11.0902 22.7925V24.3203C11.0902 24.4824 11.0258 24.6378 10.9112 24.7524C10.7966 24.867 10.6412 24.9314 10.4791 24.9314ZM13.5346 24.9314C13.3726 24.9314 13.2171 24.867 13.1025 24.7524C12.9879 24.6378 12.9235 24.4824 12.9235 24.3203V22.7925C12.9235 22.6305 12.9879 22.475 13.1025 22.3604C13.2171 22.2458 13.3726 22.1814 13.5346 22.1814C13.6967 22.1814 13.8522 22.2458 13.9668 22.3604C14.0814 22.475 14.1458 22.6305 14.1458 22.7925V24.3203C14.1458 24.4824 14.0814 24.6378 13.9668 24.7524C13.8522 24.867 13.6967 24.9314 13.5346 24.9314ZM16.8958 24.9314C16.7337 24.9314 16.5782 24.867 16.4636 24.7524C16.349 24.6378 16.2846 24.4824 16.2846 24.3203V22.7925C16.2846 22.6305 16.349 22.475 16.4636 22.3604C16.5782 22.2458 16.7337 22.1814 16.8958 22.1814C17.0578 22.1814 17.2133 22.2458 17.3279 22.3604C17.4425 22.475 17.5069 22.6305 17.5069 22.7925V24.3203C17.5069 24.4824 17.4425 24.6378 17.3279 24.7524C17.2133 24.867 17.0578 24.9314 16.8958 24.9314ZM19.6458 24.9314C19.4837 24.9314 19.3282 24.867 19.2136 24.7524C19.099 24.6378 19.0346 24.4824 19.0346 24.3203V22.7925C19.0346 22.6305 19.099 22.475 19.2136 22.3604C19.3282 22.2458 19.4837 22.1814 19.6458 22.1814C19.8078 22.1814 19.9633 22.2458 20.0779 22.3604C20.1925 22.475 20.2569 22.6305 20.2569 22.7925V24.3203C20.2569 24.4824 20.1925 24.6378 20.0779 24.7524C19.9633 24.867 19.8078 24.9314 19.6458 24.9314ZM6.90256 11.1814H5.37478C5.21271 11.1814 5.05727 11.117 4.94266 11.0024C4.82806 10.8878 4.76367 10.7324 4.76367 10.5703C4.76367 10.4082 4.82806 10.2528 4.94266 10.1382C5.05727 10.0236 5.21271 9.9592 5.37478 9.9592H6.90256C7.06464 9.9592 7.22008 10.0236 7.33468 10.1382C7.44929 10.2528 7.51367 10.4082 7.51367 10.5703C7.51367 10.7324 7.44929 10.8878 7.33468 11.0024C7.22008 11.117 7.06464 11.1814 6.90256 11.1814ZM6.90256 14.5425H5.37478C5.21271 14.5425 5.05727 14.4782 4.94266 14.3635C4.82806 14.2489 4.76367 14.0935 4.76367 13.9314C4.76367 13.7693 4.82806 13.6139 4.94266 13.4993C5.05727 13.3847 5.21271 13.3203 5.37478 13.3203H6.90256C7.06464 13.3203 7.22008 13.3847 7.33468 13.4993C7.44929 13.6139 7.51367 13.7693 7.51367 13.9314C7.51367 14.0935 7.44929 14.2489 7.33468 14.3635C7.22008 14.4782 7.06464 14.5425 6.90256 14.5425ZM6.90256 17.5981H5.37478C5.21271 17.5981 5.05727 17.5337 4.94266 17.4191C4.82806 17.3045 4.76367 17.1491 4.76367 16.987C4.76367 16.8249 4.82806 16.6695 4.94266 16.5549C5.05727 16.4403 5.21271 16.3759 5.37478 16.3759H6.90256C7.06464 16.3759 7.22008 16.4403 7.33468 16.5549C7.44929 16.6695 7.51367 16.8249 7.51367 16.987C7.51367 17.1491 7.44929 17.3045 7.33468 17.4191C7.22008 17.5337 7.06464 17.5981 6.90256 17.5981ZM6.90256 20.3481H5.37478C5.21271 20.3481 5.05727 20.2837 4.94266 20.1691C4.82806 20.0545 4.76367 19.8991 4.76367 19.737C4.76367 19.5749 4.82806 19.4195 4.94266 19.3049C5.05727 19.1903 5.21271 19.1259 5.37478 19.1259H6.90256C7.06464 19.1259 7.22008 19.1903 7.33468 19.3049C7.44929 19.4195 7.51367 19.5749 7.51367 19.737C7.51367 19.8991 7.44929 20.0545 7.33468 20.1691C7.22008 20.2837 7.06464 20.3481 6.90256 20.3481Z" fill="white"/>
</svg>
