<svg width="44" height="48" viewBox="0 0 44 48" fill="none" xmlns="http://www.w3.org/2000/svg">
<path d="M35.6076 42.5812C35.7957 41.516 35.6288 40.3881 35.2787 39.3406L35.2385 39.249C34.7165 38.0584 33.6852 37.2003 32.9173 36.445C32.7053 36.2104 32.4017 36.016 32.1896 35.7814L41.8976 31.5252C43.0882 31.0032 43.6539 29.554 43.132 28.3634L41.9274 25.6159L39.9197 21.0367C39.5985 20.304 38.6651 20.1673 38.1846 20.8147C37.4181 21.8059 36.3479 22.6027 35.077 22.9415C32.3922 23.791 29.3622 22.6081 27.923 20.0726C26.071 16.8446 27.4421 12.7494 30.8307 11.2638C31.8382 10.8221 32.8745 10.6953 33.7678 10.7404C34.5695 10.8257 35.1014 10.0465 34.7801 9.31386L32.9733 5.19255L31.5679 1.98709C31.0459 0.796488 29.5968 0.230742 28.4062 0.75273L1.93824 12.3569C0.747645 12.8789 0.181899 14.328 0.703887 15.5186L2.10924 18.7241L3.91612 22.8454C4.19719 23.4865 5.13063 23.6232 5.55967 23.1075C6.22332 22.3798 7.05888 21.7951 7.97473 21.3936C10.9857 20.2918 14.3193 21.6692 15.7874 24.5196C17.2843 27.6849 15.8844 31.4652 12.6789 32.8705C11.8547 33.2319 10.9501 33.4101 10.0568 33.365C9.29525 33.3713 8.85493 34.1103 9.17616 34.843L11.0633 39.1474L12.2679 41.895C12.7899 43.0856 14.239 43.6514 15.4296 43.1294L24.4049 39.1944C24.4338 39.5093 24.3711 39.8643 24.4 40.1792C24.3436 41.2959 24.2759 42.6358 24.7979 43.8264L24.9585 44.1927C25.6122 45.4348 26.6436 46.2929 27.9609 46.8072C29.41 47.3729 30.9331 47.3603 32.3069 46.758C33.9554 46.0352 35.2426 44.4882 35.6076 42.5812Z" fill="url(#paint0_linear_296_1519)"/>
<defs>
<linearGradient id="paint0_linear_296_1519" x1="-17.8189" y1="9.67584" x2="76.6005" y2="65.5357" gradientUnits="userSpaceOnUse">
<stop stop-color="#642495"/>
<stop offset="1" stop-color="#070C20"/>
</linearGradient>
</defs>
</svg>
