<svg width="119" height="116" viewBox="0 0 119 116" fill="none" xmlns="http://www.w3.org/2000/svg">
<g clip-path="url(#clip0_463_1059)">
<path d="M43.9107 85.4726C60.0898 95.0777 80.6 90.4088 89.7215 75.0442C98.843 59.6797 93.1216 39.4378 76.9425 29.8327C60.7634 20.2277 40.2532 24.8966 31.1317 40.2612C22.0102 55.6257 27.7316 75.8676 43.9107 85.4726Z" fill="url(#paint0_linear_463_1059)"/>
<path d="M86.8578 88.0095C80.633 92.6438 72.1817 96.1872 64.1238 96.4404C56.0658 96.6939 47.9706 94.5729 40.9021 90.3565C33.8336 86.1401 28.1225 80.0254 24.5192 72.816C20.9159 65.6069 19.922 56.7757 21.0461 49.0988L23.9343 50.8135C22.9087 57.8182 24.3748 64.9102 27.6627 71.4883C30.9505 78.0664 36.1616 83.6459 42.6113 87.4931C49.0612 91.3403 56.4475 93.2755 63.7998 93.0446C71.1523 92.8134 78.1269 90.4265 83.8064 86.198L86.8578 88.0095Z" fill="url(#paint1_linear_463_1059)"/>
<path d="M35.9705 25.526C42.1953 20.8917 48.8312 18.8398 56.8891 18.5865C64.947 18.3332 73.0421 20.4541 80.1107 24.6705C87.1791 28.8869 92.8904 35.0016 96.4938 42.211C100.097 49.4201 101.492 56.6359 100.368 64.3128L97.0669 62.3532C98.0927 55.3484 96.638 50.1168 93.3503 43.5387C90.0623 36.9605 84.8513 31.3812 78.4015 27.5339C71.9517 23.6866 64.5653 21.7513 57.2128 21.9825C49.8604 22.2136 45.0887 23.3386 39.4089 27.5673L35.9705 25.526Z" fill="url(#paint2_linear_463_1059)"/>
<path d="M52.5627 39.8015L48.9118 45.9514C48.2202 47.1162 47.7679 48.0217 47.555 48.6675C47.3603 49.3088 47.3322 49.9175 47.4704 50.4941C47.5902 50.9974 47.8031 51.4481 48.1094 51.846C48.4338 52.2396 48.9181 52.6509 49.5627 53.0795L49.3287 53.4737L38.3431 46.9518L38.5771 46.5577C39.262 46.9184 39.8493 47.1432 40.3387 47.2328C40.8461 47.318 41.3495 47.2925 41.8487 47.1566C42.4325 47.0087 42.9535 46.6926 43.4118 46.2078C43.8701 45.7229 44.4484 44.8926 45.1467 43.7162L52.642 31.091C53.225 30.1089 53.6266 29.3279 53.8468 28.7481C54.0853 28.1637 54.1997 27.6447 54.19 27.191C54.1632 26.5573 53.985 25.9959 53.6553 25.5067C53.3325 25.0062 52.8179 24.5153 52.1115 24.0341L51.9911 23.9627L52.225 23.5687L62.5917 29.7231C64.4026 30.7982 65.6836 31.6822 66.4347 32.3752C67.1858 33.0683 67.754 33.8999 68.1391 34.8699C69.0344 37.0695 68.8718 39.1971 67.6514 41.2527C66.4107 43.3427 64.6769 44.3831 62.4502 44.374C61.2923 44.3662 60.0697 44.0496 58.7823 43.4244C58.3723 43.2273 57.4223 42.6865 55.9323 41.8019L52.5627 39.8015ZM52.8882 39.2533L54.573 40.2536C55.7076 40.9272 56.6262 41.3643 57.3285 41.5651C58.0491 41.7612 58.7823 41.7795 59.5281 41.6198C61.2547 41.2702 62.6197 40.2503 63.6232 38.5601C64.1791 37.6236 64.5214 36.6685 64.6501 35.6946C64.797 34.716 64.7125 33.8009 64.3966 32.9492C64.0432 31.9517 63.4157 31.1158 62.514 30.4415C62.2639 30.2622 61.669 29.8935 60.7292 29.3356L59.285 28.4782L52.8882 39.2533Z" fill="black"/>
<path d="M48.0182 51.8386L58.832 58.2584L58.5982 58.6523C57.5895 58.0535 56.8577 57.7195 56.4029 57.6504C56.0118 57.6035 55.6277 57.6765 55.2499 57.8692C54.8718 58.0618 54.5676 58.3524 54.337 58.7407C54.0523 59.2204 53.8426 59.9915 53.7075 61.0545L53.5241 62.3817L51.1418 78.5751L61.5334 69.5694C62.8691 68.4162 63.7471 67.4855 64.1674 66.7776C64.4794 66.2521 64.6837 65.6862 64.7802 65.0792C64.8953 64.4681 64.8895 63.9164 64.7631 63.4243C64.6414 62.9506 64.4231 62.5352 64.108 62.178C63.8043 61.8279 63.3544 61.4759 62.7583 61.122L62.9921 60.7282L74.0466 67.2909L73.8128 67.6848C73.1367 67.2834 72.6303 67.0135 72.2936 66.8756C71.9686 66.7445 71.6301 66.6748 71.2781 66.6667C70.8122 66.6682 70.3554 66.7984 69.907 67.0575C69.4771 67.3116 69.1299 67.6615 68.8653 68.1072C68.6213 68.5183 68.3579 69.3272 68.0756 70.5341L64.2401 86.6292L75.8326 77.8731C77.6168 76.5384 78.7973 75.3858 79.3736 74.415C79.977 73.3986 80.0658 72.4783 79.6406 71.6543C79.3772 71.158 78.827 70.6616 77.9906 70.165L78.2244 69.7711L86.1841 74.4965L85.9502 74.8904C85.1347 74.5145 84.4622 74.3158 83.9322 74.2948C83.4204 74.2689 82.8038 74.4203 82.0817 74.7486C81.0343 75.2077 79.46 76.227 77.36 77.8068L60.1648 90.6739L59.4601 90.2555L64.1706 68.3782L47.1334 82.9375L46.3596 82.4782L49.6178 59.4836L49.8444 57.927C49.9909 56.8708 50.0556 56.083 50.0387 55.5632C50.0217 55.0435 49.9057 54.5731 49.6907 54.1519C49.5242 53.8058 49.3042 53.4976 49.0307 53.227C48.7572 52.9568 48.3417 52.6252 47.7844 52.2324L48.0182 51.8386Z" fill="black"/>
</g>
<defs>
<linearGradient id="paint0_linear_463_1059" x1="80.0321" y1="24.6238" x2="40.9807" y2="90.4033" gradientUnits="userSpaceOnUse">
<stop stop-color="#3C3ADA"/>
<stop offset="1" stop-color="#311447"/>
</linearGradient>
<linearGradient id="paint1_linear_463_1059" x1="80.0321" y1="24.6238" x2="40.9807" y2="90.4033" gradientUnits="userSpaceOnUse">
<stop stop-color="#3C3ADA"/>
<stop offset="1" stop-color="#311447"/>
</linearGradient>
<linearGradient id="paint2_linear_463_1059" x1="80.0321" y1="24.6238" x2="40.9807" y2="90.4033" gradientUnits="userSpaceOnUse">
<stop stop-color="#3C3ADA"/>
<stop offset="1" stop-color="#311447"/>
</linearGradient>
<clipPath id="clip0_463_1059">
<rect width="88.8" height="81.6" fill="white" transform="translate(42.1882 0.171875) rotate(30.6964)"/>
</clipPath>
</defs>
</svg>
