<svg width="67" height="66" viewBox="0 0 67 66" fill="none" xmlns="http://www.w3.org/2000/svg">
<path d="M48.5235 55.1525C61.6041 46.507 65.5525 29.4284 57.3423 17.0063C49.1322 4.58417 31.8725 1.52257 18.7919 10.168C5.71116 18.8134 1.76282 35.8921 9.97297 48.3142C18.1831 60.7363 35.4428 63.7979 48.5235 55.1525Z" fill="url(#paint0_linear_296_1513)"/>
<path d="M66.0261 23.8635C67.2408 30.2155 66.8285 37.8411 64.0915 43.9765C61.3546 50.1121 56.8234 55.4131 51.0936 59.1829C45.3637 62.9528 38.7031 65.015 31.9872 65.0987C25.2715 65.1826 18.2871 62.7202 12.9377 59.0886L15.2728 57.5452C20.1538 60.8588 26.0054 62.3353 32.1333 62.2588C38.2612 62.1824 44.3387 60.3007 49.5668 56.8609C54.7951 53.421 58.9295 48.5841 61.4269 42.986C63.9242 37.3876 64.6675 31.2897 63.5592 25.4941L66.0261 23.8635Z" fill="url(#paint1_linear_296_1513)"/>
<path d="M0.679209 39.3327C-0.535488 32.9808 0.33605 27.2585 3.073 21.123C5.80991 14.9876 10.3411 9.68663 16.071 5.91677C21.8008 2.14696 28.4614 0.0846167 35.1773 0.000769388C41.893 -0.0829392 47.8116 1.49184 53.1609 5.12354L50.4922 6.88736C45.6112 3.57361 41.1591 2.7643 35.0313 2.84067C28.9033 2.91721 22.826 4.79889 17.5977 8.23874C12.3694 11.6786 8.2349 16.5155 5.73757 22.1138C3.24024 27.7121 2.35074 31.6995 3.4591 37.4954L0.679209 39.3327Z" fill="url(#paint2_linear_296_1513)"/>
<path d="M17.4128 32.0739L20.699 37.046C21.3215 37.9878 21.8363 38.6559 22.2433 39.0501C22.6536 39.4292 23.0999 39.6713 23.5825 39.7771C24.0035 39.8701 24.4189 39.8741 24.8286 39.789C25.2415 39.6886 25.726 39.4748 26.2816 39.147L26.4922 39.4657L17.6104 45.3359L17.3998 45.0173C17.9191 44.6346 18.3011 44.2758 18.546 43.9413C18.7942 43.5916 18.958 43.2048 19.0374 42.7811C19.1385 42.2895 19.0907 41.784 18.8935 41.2641C18.6964 40.7442 18.2836 40.009 17.655 39.0579L10.9087 28.8505C10.3838 28.0565 9.94401 27.4716 9.58916 27.0958C9.23747 26.7047 8.88974 26.4304 8.54598 26.2729C8.06096 26.0628 7.57516 25.9925 7.08854 26.0621C6.59584 26.1224 6.04077 26.33 5.42331 26.6851L5.32601 26.7494L5.11547 26.4308L13.4968 20.8913C14.9609 19.9237 16.0893 19.284 16.8819 18.9724C17.6745 18.6608 18.5046 18.5367 19.372 18.6003C21.3469 18.7277 22.8835 19.6226 23.982 21.2845C25.0987 22.9742 25.2493 24.6524 24.4337 26.3192C24.0072 27.1848 23.3257 27.9868 22.3891 28.7252C22.0924 28.9611 21.3417 29.4772 20.1371 30.2733L17.4128 32.0739ZM17.1199 31.6307L18.482 30.7304C19.3994 30.1241 20.0609 29.594 20.4666 29.1402C20.8754 28.6709 21.1554 28.1277 21.3066 27.5104C21.6716 26.0884 21.4025 24.6942 20.4993 23.3276C19.9989 22.5705 19.4068 21.9668 18.7232 21.5166C18.0426 21.051 17.3256 20.7819 16.5721 20.7095C15.6956 20.6122 14.8407 20.7792 14.0074 21.2106C13.7821 21.333 13.2895 21.6452 12.5297 22.1475L11.3621 22.9191L17.1199 31.6307Z" fill="black"/>
<path d="M24.7899 39.8546L33.5327 34.0762L33.7432 34.3946C32.9277 34.9336 32.4114 35.3611 32.1943 35.6772C32.0172 35.9535 31.9324 36.2681 31.9397 36.6214C31.9468 36.9749 32.0542 37.3086 32.2617 37.6226C32.518 38.0104 33.0202 38.4478 33.7684 38.9352L34.6971 39.5549L45.9769 47.2237L42.9973 36.1587C42.6175 34.7381 42.2384 33.7415 41.8601 33.1691C41.5794 32.7443 41.2291 32.3855 40.809 32.0926C40.3924 31.7843 39.9765 31.5882 39.5616 31.5043C39.1621 31.4235 38.7712 31.4364 38.3888 31.5429C38.016 31.6435 37.5886 31.8531 37.1066 32.1716L36.8962 31.8532L45.8336 25.9461L46.0441 26.2646C45.4975 26.6259 45.1111 26.9077 44.8854 27.11C44.669 27.3062 44.4938 27.5347 44.3599 27.7958C44.1917 28.1457 44.1235 28.5356 44.1549 28.9661C44.1894 29.3808 44.3256 29.7683 44.5638 30.1286C44.7835 30.461 45.2945 30.9524 46.0971 31.6025L56.7753 40.3255L54.419 28.4505C54.0661 26.6276 53.6304 25.3235 53.1117 24.5386C52.5686 23.7169 51.9106 23.316 51.1381 23.3356C50.6702 23.3529 50.0981 23.5852 49.4218 24.0322L49.2113 23.7137L55.6467 19.4604L55.8571 19.7789C55.279 20.2539 54.8856 20.6862 54.6774 21.076C54.4721 21.4505 54.3616 21.9679 54.3456 22.6287C54.3094 23.5811 54.5021 25.132 54.9241 27.2809L58.3285 44.8511L57.7588 45.2277L43.0618 33.7481L47.7927 51.8146L47.1672 52.228L31.1047 41.4319L30.0196 40.6966C29.2806 40.203 28.7132 39.8683 28.3173 39.6922C27.9213 39.5161 27.5264 39.4323 27.1324 39.4405C26.8123 39.4397 26.5012 39.4928 26.199 39.5996C25.8969 39.7066 25.4974 39.8977 25.0003 40.1731L24.7899 39.8546Z" fill="black"/>
<defs>
<linearGradient id="paint0_linear_296_1513" x1="16.0074" y1="5.95869" x2="51.1572" y2="59.1409" gradientUnits="userSpaceOnUse">
<stop stop-color="#3C3ADA"/>
<stop offset="1" stop-color="#311447"/>
</linearGradient>
<linearGradient id="paint1_linear_296_1513" x1="16.0074" y1="5.95869" x2="51.1572" y2="59.1409" gradientUnits="userSpaceOnUse">
<stop stop-color="#3C3ADA"/>
<stop offset="1" stop-color="#311447"/>
</linearGradient>
<linearGradient id="paint2_linear_296_1513" x1="16.0074" y1="5.95869" x2="51.1572" y2="59.1409" gradientUnits="userSpaceOnUse">
<stop stop-color="#3C3ADA"/>
<stop offset="1" stop-color="#311447"/>
</linearGradient>
</defs>
</svg>
