<svg width="30" height="30" viewBox="0 0 30 30" fill="none" xmlns="http://www.w3.org/2000/svg">
<rect width="30" height="30" rx="8" fill="#656EEB"/>
<g clip-path="url(#clip0_284_963)">
<mask id="path-2-outside-1_284_963" maskUnits="userSpaceOnUse" x="2.99951" y="3.00781" width="24" height="24" fill="black">
<rect fill="white" x="2.99951" y="3.00781" width="24" height="24"/>
<path d="M25.866 11.458L24.8705 10.4625L25.4627 9.87034C25.8092 9.52384 25.9999 9.06368 25.9999 8.57418C25.9999 8.08468 25.8092 7.62451 25.4627 7.27801L23.6669 5.48134C23.6184 5.43261 23.5594 5.39544 23.4945 5.37259C23.4296 5.34974 23.3604 5.34179 23.292 5.34934C23.2517 5.35393 23.2132 5.36309 23.2499 5.36584C22.9969 5.36584 22.7915 5.16051 22.7824 4.98634C22.7906 4.95884 22.8044 4.89101 22.8071 4.86168C22.8134 4.7922 22.8036 4.72222 22.7787 4.65708C22.7538 4.59194 22.7143 4.53337 22.6632 4.48584C21.9592 3.82859 20.7932 3.85518 20.1204 4.52801L4.53703 20.1113C4.20038 20.4463 4.00764 20.8994 3.99976 21.3742C3.99189 21.849 4.16951 22.3082 4.49486 22.6542C4.59111 22.7578 4.77628 22.7926 4.91653 22.7825C5.16953 22.7825 5.37486 22.9878 5.38311 23.1666C5.37323 23.2047 5.36528 23.2432 5.35928 23.2821C5.35199 23.3505 5.36006 23.4196 5.3829 23.4845C5.40573 23.5493 5.44276 23.6083 5.49128 23.657L7.28794 25.4528C7.63444 25.7993 8.09461 25.9899 8.58411 25.9899C9.07361 25.9899 9.53378 25.7993 9.87936 25.4537L10.4724 24.8606L11.4679 25.8561C11.5541 25.9416 11.6706 25.9895 11.792 25.9895C11.9134 25.9895 12.0298 25.9416 12.116 25.8561L16.6994 21.2728C16.7853 21.1868 16.8336 21.0703 16.8336 20.9487C16.8336 20.8272 16.7853 20.7106 16.6994 20.6247L15.7039 19.6292L16.4308 18.9023L17.4263 19.8978C17.5125 19.9832 17.6289 20.0312 17.7503 20.0312C17.8717 20.0312 17.9882 19.9832 18.0744 19.8978L25.866 12.1061C25.952 12.0201 26.0002 11.9036 26.0002 11.7821C26.0002 11.6605 25.952 11.544 25.866 11.458ZM15.7277 20.9483L11.7924 24.8835L11.1214 24.2125L15.0567 20.2773L15.7277 20.9483ZM9.23219 24.8047C9.05769 24.9715 8.82555 25.0647 8.58411 25.0647C8.34267 25.0647 8.11053 24.9715 7.93603 24.8047L6.29061 23.1593C6.27073 22.8317 6.13461 22.5221 5.90674 22.286C5.67887 22.0499 5.37422 21.9028 5.04761 21.8713C4.94314 21.697 4.90002 21.4928 4.9251 21.2911C4.95018 21.0894 5.04204 20.9019 5.18603 20.7585L20.7694 5.17518C20.9142 5.03355 21.1014 4.94332 21.3024 4.91832C21.5034 4.89331 21.7071 4.93492 21.8822 5.03676C21.9137 5.36337 22.0607 5.66802 22.2968 5.89589C22.5329 6.12376 22.8426 6.25988 23.1701 6.27976L24.8155 7.92518C24.9888 8.09843 25.0841 8.32851 25.0841 8.57326C25.0844 8.69368 25.0609 8.81297 25.0148 8.92422C24.9687 9.03546 24.9009 9.13645 24.8155 9.22134L9.23219 24.8047ZM17.7508 18.9252L17.0798 18.2542L24.2234 11.1106L24.8944 11.7816L17.7508 18.9252ZM21.2827 6.87468C21.1967 6.78935 21.0805 6.7414 20.9593 6.74123C20.8381 6.74106 20.7218 6.78868 20.6355 6.87376C17.6619 9.82634 17.6619 9.82634 17.7847 10.1233C17.8079 10.1792 17.8418 10.23 17.8846 10.2728L19.7179 12.1061C19.8041 12.1916 19.9206 12.2395 20.042 12.2395C20.1634 12.2395 20.2798 12.1916 20.366 12.1061L23.116 9.35609C23.202 9.27014 23.2502 9.15359 23.2502 9.03205C23.2502 8.91052 23.202 8.79396 23.116 8.70801L21.2827 6.87468ZM20.0424 11.1335L18.8535 9.94459C19.5534 9.2432 20.255 8.54348 20.9582 7.84543L22.1444 9.03159L20.0424 11.1335ZM15.7827 12.3747C15.6967 12.2894 15.5805 12.2414 15.4593 12.2412C15.3381 12.2411 15.2218 12.2887 15.1355 12.3738C12.1619 15.3263 12.1619 15.3263 12.2847 15.6233C12.3079 15.6792 12.3418 15.73 12.3846 15.7728L14.2179 17.6061C14.3041 17.6916 14.4206 17.7395 14.542 17.7395C14.6634 17.7395 14.7798 17.6916 14.866 17.6061L17.616 14.8561C17.702 14.7701 17.7502 14.6536 17.7502 14.5321C17.7502 14.4105 17.702 14.294 17.616 14.208L15.7827 12.3747ZM14.5424 16.6335L13.3535 15.4446C14.0534 14.7432 14.755 14.0435 15.4582 13.3454L16.6444 14.5316L14.5424 16.6335ZM10.2827 17.8747C10.1967 17.7894 10.0805 17.7414 9.9593 17.7412C9.83814 17.7411 9.7218 17.7887 9.63553 17.8738C6.66186 20.8263 6.66186 20.8263 6.78469 21.1233C6.80785 21.1792 6.84181 21.23 6.88461 21.2728L8.71794 23.1061C8.80413 23.1916 8.9206 23.2395 9.04199 23.2395C9.16337 23.2395 9.27984 23.1916 9.36603 23.1061L12.116 20.3561C12.202 20.2701 12.2502 20.1536 12.2502 20.0321C12.2502 19.9105 12.202 19.794 12.116 19.708L10.2827 17.8747ZM9.04244 22.1335L7.85353 20.9446C8.55342 20.2432 9.25498 19.5435 9.95819 18.8454L11.1444 20.0316L9.04244 22.1335Z"/>
</mask>
<path d="M25.866 11.458L24.8705 10.4625L25.4627 9.87034C25.8092 9.52384 25.9999 9.06368 25.9999 8.57418C25.9999 8.08468 25.8092 7.62451 25.4627 7.27801L23.6669 5.48134C23.6184 5.43261 23.5594 5.39544 23.4945 5.37259C23.4296 5.34974 23.3604 5.34179 23.292 5.34934C23.2517 5.35393 23.2132 5.36309 23.2499 5.36584C22.9969 5.36584 22.7915 5.16051 22.7824 4.98634C22.7906 4.95884 22.8044 4.89101 22.8071 4.86168C22.8134 4.7922 22.8036 4.72222 22.7787 4.65708C22.7538 4.59194 22.7143 4.53337 22.6632 4.48584C21.9592 3.82859 20.7932 3.85518 20.1204 4.52801L4.53703 20.1113C4.20038 20.4463 4.00764 20.8994 3.99976 21.3742C3.99189 21.849 4.16951 22.3082 4.49486 22.6542C4.59111 22.7578 4.77628 22.7926 4.91653 22.7825C5.16953 22.7825 5.37486 22.9878 5.38311 23.1666C5.37323 23.2047 5.36528 23.2432 5.35928 23.2821C5.35199 23.3505 5.36006 23.4196 5.3829 23.4845C5.40573 23.5493 5.44276 23.6083 5.49128 23.657L7.28794 25.4528C7.63444 25.7993 8.09461 25.9899 8.58411 25.9899C9.07361 25.9899 9.53378 25.7993 9.87936 25.4537L10.4724 24.8606L11.4679 25.8561C11.5541 25.9416 11.6706 25.9895 11.792 25.9895C11.9134 25.9895 12.0298 25.9416 12.116 25.8561L16.6994 21.2728C16.7853 21.1868 16.8336 21.0703 16.8336 20.9487C16.8336 20.8272 16.7853 20.7106 16.6994 20.6247L15.7039 19.6292L16.4308 18.9023L17.4263 19.8978C17.5125 19.9832 17.6289 20.0312 17.7503 20.0312C17.8717 20.0312 17.9882 19.9832 18.0744 19.8978L25.866 12.1061C25.952 12.0201 26.0002 11.9036 26.0002 11.7821C26.0002 11.6605 25.952 11.544 25.866 11.458ZM15.7277 20.9483L11.7924 24.8835L11.1214 24.2125L15.0567 20.2773L15.7277 20.9483ZM9.23219 24.8047C9.05769 24.9715 8.82555 25.0647 8.58411 25.0647C8.34267 25.0647 8.11053 24.9715 7.93603 24.8047L6.29061 23.1593C6.27073 22.8317 6.13461 22.5221 5.90674 22.286C5.67887 22.0499 5.37422 21.9028 5.04761 21.8713C4.94314 21.697 4.90002 21.4928 4.9251 21.2911C4.95018 21.0894 5.04204 20.9019 5.18603 20.7585L20.7694 5.17518C20.9142 5.03355 21.1014 4.94332 21.3024 4.91832C21.5034 4.89331 21.7071 4.93492 21.8822 5.03676C21.9137 5.36337 22.0607 5.66802 22.2968 5.89589C22.5329 6.12376 22.8426 6.25988 23.1701 6.27976L24.8155 7.92518C24.9888 8.09843 25.0841 8.32851 25.0841 8.57326C25.0844 8.69368 25.0609 8.81297 25.0148 8.92422C24.9687 9.03546 24.9009 9.13645 24.8155 9.22134L9.23219 24.8047ZM17.7508 18.9252L17.0798 18.2542L24.2234 11.1106L24.8944 11.7816L17.7508 18.9252ZM21.2827 6.87468C21.1967 6.78935 21.0805 6.7414 20.9593 6.74123C20.8381 6.74106 20.7218 6.78868 20.6355 6.87376C17.6619 9.82634 17.6619 9.82634 17.7847 10.1233C17.8079 10.1792 17.8418 10.23 17.8846 10.2728L19.7179 12.1061C19.8041 12.1916 19.9206 12.2395 20.042 12.2395C20.1634 12.2395 20.2798 12.1916 20.366 12.1061L23.116 9.35609C23.202 9.27014 23.2502 9.15359 23.2502 9.03205C23.2502 8.91052 23.202 8.79396 23.116 8.70801L21.2827 6.87468ZM20.0424 11.1335L18.8535 9.94459C19.5534 9.2432 20.255 8.54348 20.9582 7.84543L22.1444 9.03159L20.0424 11.1335ZM15.7827 12.3747C15.6967 12.2894 15.5805 12.2414 15.4593 12.2412C15.3381 12.2411 15.2218 12.2887 15.1355 12.3738C12.1619 15.3263 12.1619 15.3263 12.2847 15.6233C12.3079 15.6792 12.3418 15.73 12.3846 15.7728L14.2179 17.6061C14.3041 17.6916 14.4206 17.7395 14.542 17.7395C14.6634 17.7395 14.7798 17.6916 14.866 17.6061L17.616 14.8561C17.702 14.7701 17.7502 14.6536 17.7502 14.5321C17.7502 14.4105 17.702 14.294 17.616 14.208L15.7827 12.3747ZM14.5424 16.6335L13.3535 15.4446C14.0534 14.7432 14.755 14.0435 15.4582 13.3454L16.6444 14.5316L14.5424 16.6335ZM10.2827 17.8747C10.1967 17.7894 10.0805 17.7414 9.9593 17.7412C9.83814 17.7411 9.7218 17.7887 9.63553 17.8738C6.66186 20.8263 6.66186 20.8263 6.78469 21.1233C6.80785 21.1792 6.84181 21.23 6.88461 21.2728L8.71794 23.1061C8.80413 23.1916 8.9206 23.2395 9.04199 23.2395C9.16337 23.2395 9.27984 23.1916 9.36603 23.1061L12.116 20.3561C12.202 20.2701 12.2502 20.1536 12.2502 20.0321C12.2502 19.9105 12.202 19.794 12.116 19.708L10.2827 17.8747ZM9.04244 22.1335L7.85353 20.9446C8.55342 20.2432 9.25498 19.5435 9.95819 18.8454L11.1444 20.0316L9.04244 22.1335Z" fill="white"/>
<path d="M25.866 11.458L24.8705 10.4625L25.4627 9.87034C25.8092 9.52384 25.9999 9.06368 25.9999 8.57418C25.9999 8.08468 25.8092 7.62451 25.4627 7.27801L23.6669 5.48134C23.6184 5.43261 23.5594 5.39544 23.4945 5.37259C23.4296 5.34974 23.3604 5.34179 23.292 5.34934C23.2517 5.35393 23.2132 5.36309 23.2499 5.36584C22.9969 5.36584 22.7915 5.16051 22.7824 4.98634C22.7906 4.95884 22.8044 4.89101 22.8071 4.86168C22.8134 4.7922 22.8036 4.72222 22.7787 4.65708C22.7538 4.59194 22.7143 4.53337 22.6632 4.48584C21.9592 3.82859 20.7932 3.85518 20.1204 4.52801L4.53703 20.1113C4.20038 20.4463 4.00764 20.8994 3.99976 21.3742C3.99189 21.849 4.16951 22.3082 4.49486 22.6542C4.59111 22.7578 4.77628 22.7926 4.91653 22.7825C5.16953 22.7825 5.37486 22.9878 5.38311 23.1666C5.37323 23.2047 5.36528 23.2432 5.35928 23.2821C5.35199 23.3505 5.36006 23.4196 5.3829 23.4845C5.40573 23.5493 5.44276 23.6083 5.49128 23.657L7.28794 25.4528C7.63444 25.7993 8.09461 25.9899 8.58411 25.9899C9.07361 25.9899 9.53378 25.7993 9.87936 25.4537L10.4724 24.8606L11.4679 25.8561C11.5541 25.9416 11.6706 25.9895 11.792 25.9895C11.9134 25.9895 12.0298 25.9416 12.116 25.8561L16.6994 21.2728C16.7853 21.1868 16.8336 21.0703 16.8336 20.9487C16.8336 20.8272 16.7853 20.7106 16.6994 20.6247L15.7039 19.6292L16.4308 18.9023L17.4263 19.8978C17.5125 19.9832 17.6289 20.0312 17.7503 20.0312C17.8717 20.0312 17.9882 19.9832 18.0744 19.8978L25.866 12.1061C25.952 12.0201 26.0002 11.9036 26.0002 11.7821C26.0002 11.6605 25.952 11.544 25.866 11.458ZM15.7277 20.9483L11.7924 24.8835L11.1214 24.2125L15.0567 20.2773L15.7277 20.9483ZM9.23219 24.8047C9.05769 24.9715 8.82555 25.0647 8.58411 25.0647C8.34267 25.0647 8.11053 24.9715 7.93603 24.8047L6.29061 23.1593C6.27073 22.8317 6.13461 22.5221 5.90674 22.286C5.67887 22.0499 5.37422 21.9028 5.04761 21.8713C4.94314 21.697 4.90002 21.4928 4.9251 21.2911C4.95018 21.0894 5.04204 20.9019 5.18603 20.7585L20.7694 5.17518C20.9142 5.03355 21.1014 4.94332 21.3024 4.91832C21.5034 4.89331 21.7071 4.93492 21.8822 5.03676C21.9137 5.36337 22.0607 5.66802 22.2968 5.89589C22.5329 6.12376 22.8426 6.25988 23.1701 6.27976L24.8155 7.92518C24.9888 8.09843 25.0841 8.32851 25.0841 8.57326C25.0844 8.69368 25.0609 8.81297 25.0148 8.92422C24.9687 9.03546 24.9009 9.13645 24.8155 9.22134L9.23219 24.8047ZM17.7508 18.9252L17.0798 18.2542L24.2234 11.1106L24.8944 11.7816L17.7508 18.9252ZM21.2827 6.87468C21.1967 6.78935 21.0805 6.7414 20.9593 6.74123C20.8381 6.74106 20.7218 6.78868 20.6355 6.87376C17.6619 9.82634 17.6619 9.82634 17.7847 10.1233C17.8079 10.1792 17.8418 10.23 17.8846 10.2728L19.7179 12.1061C19.8041 12.1916 19.9206 12.2395 20.042 12.2395C20.1634 12.2395 20.2798 12.1916 20.366 12.1061L23.116 9.35609C23.202 9.27014 23.2502 9.15359 23.2502 9.03205C23.2502 8.91052 23.202 8.79396 23.116 8.70801L21.2827 6.87468ZM20.0424 11.1335L18.8535 9.94459C19.5534 9.2432 20.255 8.54348 20.9582 7.84543L22.1444 9.03159L20.0424 11.1335ZM15.7827 12.3747C15.6967 12.2894 15.5805 12.2414 15.4593 12.2412C15.3381 12.2411 15.2218 12.2887 15.1355 12.3738C12.1619 15.3263 12.1619 15.3263 12.2847 15.6233C12.3079 15.6792 12.3418 15.73 12.3846 15.7728L14.2179 17.6061C14.3041 17.6916 14.4206 17.7395 14.542 17.7395C14.6634 17.7395 14.7798 17.6916 14.866 17.6061L17.616 14.8561C17.702 14.7701 17.7502 14.6536 17.7502 14.5321C17.7502 14.4105 17.702 14.294 17.616 14.208L15.7827 12.3747ZM14.5424 16.6335L13.3535 15.4446C14.0534 14.7432 14.755 14.0435 15.4582 13.3454L16.6444 14.5316L14.5424 16.6335ZM10.2827 17.8747C10.1967 17.7894 10.0805 17.7414 9.9593 17.7412C9.83814 17.7411 9.7218 17.7887 9.63553 17.8738C6.66186 20.8263 6.66186 20.8263 6.78469 21.1233C6.80785 21.1792 6.84181 21.23 6.88461 21.2728L8.71794 23.1061C8.80413 23.1916 8.9206 23.2395 9.04199 23.2395C9.16337 23.2395 9.27984 23.1916 9.36603 23.1061L12.116 20.3561C12.202 20.2701 12.2502 20.1536 12.2502 20.0321C12.2502 19.9105 12.202 19.794 12.116 19.708L10.2827 17.8747ZM9.04244 22.1335L7.85353 20.9446C8.55342 20.2432 9.25498 19.5435 9.95819 18.8454L11.1444 20.0316L9.04244 22.1335Z" stroke="white" stroke-width="0.2" mask="url(#path-2-outside-1_284_963)"/>
</g>
<defs>
<clipPath id="clip0_284_963">
<rect width="22" height="22" fill="white" transform="translate(4 4)"/>
</clipPath>
</defs>
</svg>
