<svg width="26" height="20" viewBox="0 0 26 20" fill="none" xmlns="http://www.w3.org/2000/svg">
<path d="M0.652343 19.8149V14.1679C0.652343 12.5645 0.966065 10.9261 1.59351 9.25295C2.22095 7.57976 3.04883 6.00244 4.07714 4.52097C5.10546 3.0395 6.22091 1.80205 7.42351 0.808593L12.3385 3.71052C11.3625 5.24428 10.5607 6.84775 9.93329 8.52093C9.32328 10.1941 9.01827 12.059 9.01827 14.1156V19.8149H0.652343ZM13.8548 19.8149V14.1679C13.8548 12.5645 14.1685 10.9261 14.796 9.25295C15.4234 7.57976 16.2513 6.00244 17.2796 4.52097C18.3079 3.0395 19.4234 1.80205 20.626 0.808593L25.541 3.71052C24.5649 5.24428 23.7632 6.84775 23.1358 8.52093C22.5258 10.1941 22.2207 12.059 22.2207 14.1156V19.8149H13.8548Z" fill="white"/>
</svg>
