<svg width="29" height="124" viewBox="0 0 29 124" fill="none" xmlns="http://www.w3.org/2000/svg">
<path d="M28.2465 1.87763L19.0146 123.119L0.808545 121.736L1.31151 117.644L10.7741 118.392C11.5926 118.492 12.3131 117.799 12.4137 116.98C12.5143 116.162 11.8209 115.441 11.0025 115.341L1.44061 114.605L1.80492 111.84L5.66203 112.07C6.48049 112.17 7.20105 111.477 7.30164 110.659C7.40224 109.84 6.70884 109.119 5.89038 109.019L2.02104 108.69L2.2861 105.937L6.1432 106.167C6.96166 106.267 7.68222 105.574 7.78282 104.755C7.88341 103.937 7.19002 103.216 6.37156 103.116L2.50221 102.787L2.76728 100.034L6.52513 100.276C7.34359 100.376 8.06415 99.6827 8.16474 98.8642C8.26534 98.0458 7.57194 97.3252 6.75348 97.2246L2.7346 97.3171L2.99966 94.564L6.85676 94.7937C7.67523 94.8943 8.39578 94.2009 8.49638 93.3824C8.59697 92.564 7.90357 91.8434 7.08511 91.7428L3.21577 91.4139L3.48084 88.6608L7.23869 88.9027C8.05715 89.0033 8.77771 88.3099 8.8783 87.4914C8.9789 86.673 8.2855 85.9524 7.46704 85.8518L3.5977 85.5229L3.875 82.869L7.63286 83.1109C8.45132 83.2115 9.17188 82.5181 9.27247 81.6997C9.37306 80.8812 8.67967 80.1606 7.86121 80.06L4.00411 79.8303L4.26917 77.0772L8.12627 77.3069C8.94473 77.4075 9.66529 76.7141 9.76588 75.8956C9.86648 75.0772 9.17308 74.3566 8.35462 74.256L4.48528 73.9271L4.75035 71.174L8.61968 71.5029C9.43815 71.6035 10.1587 70.9101 10.2593 70.0916C10.3599 69.2732 9.6665 68.5526 8.84804 68.452L4.99093 68.2223L5.16899 65.5807L14.3216 66.2657C15.1401 66.3663 15.8606 65.6729 15.9612 64.8545C16.0618 64.036 15.3684 63.3154 14.55 63.2149L5.39734 62.5298L5.55092 59.6897L9.40802 59.9194C10.2265 60.0199 10.947 59.3266 11.0476 58.5081C11.1482 57.6896 10.4548 56.9691 9.63637 56.8685L5.7915 56.738L6.05657 53.9849L9.92591 54.3138C10.7444 54.4144 11.4649 53.721 11.5655 52.9026C11.6661 52.0841 10.9727 51.3636 10.1543 51.263L6.29716 51.0333L6.45073 48.1931L10.3078 48.4228C11.1263 48.5234 11.8469 47.83 11.9474 47.0116C12.048 46.1931 11.3546 45.4725 10.5362 45.3719L6.69132 45.2415L6.8449 42.4014L10.702 42.631C11.5205 42.7316 12.241 42.0382 12.3416 41.2198C12.3552 40.5128 11.7611 39.78 10.9426 39.6794L7.18474 39.4375L7.33831 36.5973L11.2077 36.9263C12.0261 37.0269 12.7467 36.3335 12.8473 35.515C12.9479 34.6966 12.2545 33.976 11.436 33.8754L7.5789 33.6457L7.73248 30.8056L11.5896 31.0353C12.408 31.1359 13.1286 30.4425 13.2292 29.624C13.3298 28.8055 12.6364 28.085 11.8179 27.9844L8.06008 27.7425L8.21366 24.9023L12.083 25.2313C12.9015 25.3318 13.622 24.6385 13.7226 23.82C13.8232 23.0015 13.1298 22.281 12.3113 22.1804L8.55349 21.9384L8.70707 19.0983L12.5764 19.4272C13.3949 19.5278 14.1154 18.8344 14.216 18.016C14.3166 17.1975 13.6232 16.477 12.8048 16.3764L8.86065 16.2582L9.01423 13.418L12.8713 13.6477C13.6898 13.7483 14.4104 13.0549 14.5109 12.2364C14.6115 11.418 13.9181 10.6974 13.0997 10.5968L9.34183 10.3549L9.58241 7.40327L18.735 8.08832C19.5535 8.18891 20.2741 7.49552 20.3747 6.67706C20.289 5.98232 19.6948 5.24952 18.7771 5.16117L9.62451 4.47611L10.0405 0.495288L28.2465 1.87763Z" fill="url(#paint0_linear_296_1526)"/>
<path d="M28.2465 1.87763L19.0146 123.119L0.808545 121.736L1.31151 117.644L10.7741 118.392C11.5926 118.492 12.3131 117.799 12.4137 116.98C12.5143 116.162 11.8209 115.441 11.0025 115.341L1.44061 114.605L1.80492 111.84L5.66203 112.07C6.48049 112.17 7.20105 111.477 7.30164 110.659C7.40224 109.84 6.70884 109.119 5.89038 109.019L2.02104 108.69L2.2861 105.937L6.1432 106.167C6.96166 106.267 7.68222 105.574 7.78282 104.755C7.88341 103.937 7.19002 103.216 6.37156 103.116L2.50221 102.787L2.76728 100.034L6.52513 100.276C7.34359 100.376 8.06415 99.6827 8.16474 98.8642C8.26534 98.0458 7.57194 97.3252 6.75348 97.2246L2.7346 97.3171L2.99966 94.564L6.85676 94.7937C7.67523 94.8943 8.39578 94.2009 8.49638 93.3824C8.59697 92.564 7.90357 91.8434 7.08511 91.7428L3.21577 91.4139L3.48084 88.6608L7.23869 88.9027C8.05715 89.0033 8.77771 88.3099 8.8783 87.4914C8.9789 86.673 8.2855 85.9524 7.46704 85.8518L3.5977 85.5229L3.875 82.869L7.63286 83.1109C8.45132 83.2115 9.17188 82.5181 9.27247 81.6997C9.37306 80.8812 8.67967 80.1606 7.86121 80.06L4.00411 79.8303L4.26917 77.0772L8.12627 77.3069C8.94473 77.4075 9.66529 76.7141 9.76588 75.8956C9.86648 75.0772 9.17308 74.3566 8.35462 74.256L4.48528 73.9271L4.75035 71.174L8.61968 71.5029C9.43815 71.6035 10.1587 70.9101 10.2593 70.0916C10.3599 69.2732 9.6665 68.5526 8.84804 68.452L4.99093 68.2223L5.16899 65.5807L14.3216 66.2657C15.1401 66.3663 15.8606 65.6729 15.9612 64.8545C16.0618 64.036 15.3684 63.3154 14.55 63.2149L5.39734 62.5298L5.55092 59.6897L9.40802 59.9194C10.2265 60.0199 10.947 59.3266 11.0476 58.5081C11.1482 57.6896 10.4548 56.9691 9.63637 56.8685L5.7915 56.738L6.05657 53.9849L9.92591 54.3138C10.7444 54.4144 11.4649 53.721 11.5655 52.9026C11.6661 52.0841 10.9727 51.3636 10.1543 51.263L6.29716 51.0333L6.45073 48.1931L10.3078 48.4228C11.1263 48.5234 11.8469 47.83 11.9474 47.0116C12.048 46.1931 11.3546 45.4725 10.5362 45.3719L6.69132 45.2415L6.8449 42.4014L10.702 42.631C11.5205 42.7316 12.241 42.0382 12.3416 41.2198C12.3552 40.5128 11.7611 39.78 10.9426 39.6794L7.18474 39.4375L7.33831 36.5973L11.2077 36.9263C12.0261 37.0269 12.7467 36.3335 12.8473 35.515C12.9479 34.6966 12.2545 33.976 11.436 33.8754L7.5789 33.6457L7.73248 30.8056L11.5896 31.0353C12.408 31.1359 13.1286 30.4425 13.2292 29.624C13.3298 28.8055 12.6364 28.085 11.8179 27.9844L8.06008 27.7425L8.21366 24.9023L12.083 25.2313C12.9015 25.3318 13.622 24.6385 13.7226 23.82C13.8232 23.0015 13.1298 22.281 12.3113 22.1804L8.55349 21.9384L8.70707 19.0983L12.5764 19.4272C13.3949 19.5278 14.1154 18.8344 14.216 18.016C14.3166 17.1975 13.6232 16.477 12.8048 16.3764L8.86065 16.2582L9.01423 13.418L12.8713 13.6477C13.6898 13.7483 14.4104 13.0549 14.5109 12.2364C14.6115 11.418 13.9181 10.6974 13.0997 10.5968L9.34183 10.3549L9.58241 7.40327L18.735 8.08832C19.5535 8.18891 20.2741 7.49552 20.3747 6.67706C20.289 5.98232 19.6948 5.24952 18.7771 5.16117L9.62451 4.47611L10.0405 0.495288L28.2465 1.87763Z" fill="url(#paint1_linear_296_1526)"/>
<defs>
<linearGradient id="paint0_linear_296_1526" x1="27.3711" y1="45.0026" x2="-33.0351" y2="86.3971" gradientUnits="userSpaceOnUse">
<stop stop-color="#3C37CF"/>
<stop offset="1" stop-color="#070C20"/>
</linearGradient>
<linearGradient id="paint1_linear_296_1526" x1="27.3711" y1="45.0026" x2="-33.0351" y2="86.3971" gradientUnits="userSpaceOnUse">
<stop stop-color="#3C37CF"/>
<stop offset="1" stop-color="#070C20"/>
</linearGradient>
</defs>
</svg>
