<svg width="30" height="30" viewBox="0 0 30 30" fill="none" xmlns="http://www.w3.org/2000/svg">
<rect width="30" height="30" rx="8" fill="#656EEB"/>
<path d="M19.7506 5.375H10.2494C9.68651 5.37681 9.14722 5.60121 8.74922 5.99922C8.35121 6.39722 8.12681 6.93651 8.125 7.49938V22.5006C8.12681 23.0635 8.35121 23.6028 8.74922 24.0008C9.14722 24.3988 9.68651 24.6232 10.2494 24.625C10.4317 24.625 10.6066 24.5526 10.7355 24.4236C10.8644 24.2947 10.9369 24.1198 10.9369 23.9375C10.9369 23.7552 10.8644 23.5803 10.7355 23.4514C10.6066 23.3224 10.4317 23.25 10.2494 23.25C10.0506 23.25 9.86002 23.171 9.71949 23.0305C9.57895 22.89 9.5 22.6994 9.5 22.5006V7.49938C9.5 7.30063 9.57895 7.11002 9.71949 6.96949C9.86002 6.82895 10.0506 6.75 10.2494 6.75H19.7506C19.9494 6.75 20.14 6.82895 20.2805 6.96949C20.421 7.11002 20.5 7.30063 20.5 7.49938V22.5006C20.5 22.6994 20.421 22.89 20.2805 23.0305C20.14 23.171 19.9494 23.25 19.7506 23.25H12.9375C12.7552 23.25 12.5803 23.3224 12.4514 23.4514C12.3224 23.5803 12.25 23.7552 12.25 23.9375C12.25 24.1198 12.3224 24.2947 12.4514 24.4236C12.5803 24.5526 12.7552 24.625 12.9375 24.625H19.7506C20.3135 24.6232 20.8528 24.3988 21.2508 24.0008C21.6488 23.6028 21.8732 23.0635 21.875 22.5006V7.49938C21.8732 6.93651 21.6488 6.39722 21.2508 5.99922C20.8528 5.60121 20.3135 5.37681 19.7506 5.375Z" fill="white"/>
<path d="M12.9373 9.24711C12.4524 9.48896 12.0199 9.82398 11.6645 10.233C11.309 10.6421 11.0377 11.1172 10.866 11.6311C10.6942 12.1451 10.6254 12.6878 10.6635 13.2284C10.7016 13.7689 10.8458 14.2967 11.0879 14.7815C11.4234 15.4525 11.9342 16.0202 12.5661 16.4246C12.6786 16.4911 12.8066 16.5266 12.9373 16.5277C13.0523 16.5275 13.1655 16.4985 13.2664 16.4432C13.3673 16.388 13.4527 16.3083 13.5148 16.2115C13.613 16.0582 13.6464 15.8723 13.6078 15.6945C13.5691 15.5166 13.4615 15.3614 13.3086 15.2627C12.9048 15.007 12.5746 14.6505 12.3506 14.2283C12.1266 13.8061 12.0165 13.3328 12.0311 12.8551C12.0457 12.3774 12.1846 11.9118 12.4341 11.5041C12.6835 11.0964 13.0349 10.7608 13.4536 10.5303C13.8723 10.2998 14.3439 10.1824 14.8217 10.1897C15.2996 10.197 15.7674 10.3287 16.1788 10.5719C16.5903 10.815 16.9313 11.1612 17.1682 11.5763C17.4051 11.9914 17.5297 12.461 17.5298 12.939C17.5298 13.1213 17.6022 13.2962 17.7312 13.4251C17.8601 13.5541 18.035 13.6265 18.2173 13.6265C18.3996 13.6265 18.5745 13.5541 18.7034 13.4251C18.8324 13.2962 18.9048 13.1213 18.9048 12.939C18.907 12.2993 18.7586 11.6682 18.4717 11.0965C18.2298 10.6116 17.8948 10.179 17.4857 9.82363C17.0767 9.46822 16.6016 9.1969 16.0877 9.02515C15.5737 8.85341 15.0309 8.78462 14.4904 8.8227C13.9498 8.86078 13.4221 9.005 12.9373 9.24711Z" fill="white"/>
<path d="M16.6706 13.3249C16.4482 13.0385 16.1335 12.8381 15.7799 12.7577C15.4263 12.6774 15.0559 12.7221 14.7316 12.8842C14.4073 13.0464 14.1492 13.3159 14.0013 13.647C13.8535 13.9781 13.825 14.3501 13.9206 14.6999L14.5531 17.5461C14.6695 18.056 14.955 18.5116 15.3632 18.8386C15.7714 19.1656 16.2782 19.345 16.8013 19.3474C17.1642 19.357 17.5244 19.2816 17.8531 19.1274C18.163 18.9678 18.4327 18.7399 18.6417 18.461C18.8508 18.1821 18.9938 17.8593 19.06 17.5171C19.1262 17.1749 19.1138 16.8221 19.0239 16.4853C18.9339 16.1486 18.7687 15.8366 18.5406 15.573L16.6706 13.3249ZM17.75 17.2161C17.7232 17.3539 17.6654 17.4837 17.5808 17.5957C17.4962 17.7077 17.3871 17.7989 17.2619 17.8624C17.1353 17.9233 16.9967 17.9549 16.8563 17.9549C16.7158 17.9549 16.5772 17.9233 16.4506 17.8624C16.3241 17.8024 16.2131 17.7142 16.1261 17.6045C16.0391 17.4948 15.9784 17.3667 15.9487 17.2299L15.3162 14.3767C15.3067 14.3356 15.3109 14.2924 15.3283 14.2539C15.3457 14.2154 15.3753 14.1836 15.4125 14.1636C15.442 14.1573 15.4724 14.1573 15.5019 14.1636C15.5297 14.1625 15.5574 14.1682 15.5825 14.1802C15.6077 14.1921 15.6296 14.2101 15.6463 14.2324L17.5506 16.4461C17.6406 16.5506 17.7054 16.6744 17.7399 16.8079C17.7745 16.9414 17.7779 17.0811 17.75 17.2161ZM15 21.1899C15 21.0075 14.9276 20.8326 14.7986 20.7037C14.6697 20.5748 14.4948 20.5024 14.3125 20.5024H11.5625C11.3802 20.5024 11.2053 20.5748 11.0764 20.7037C10.9474 20.8326 10.875 21.0075 10.875 21.1899C10.875 21.3722 10.9474 21.5471 11.0764 21.676C11.2053 21.8049 11.3802 21.8774 11.5625 21.8774H14.3125C14.4948 21.8774 14.6697 21.8049 14.7986 21.676C14.9276 21.5471 15 21.3722 15 21.1899Z" fill="white"/>
</svg>
