<svg width="67" height="67" viewBox="0 0 67 67" fill="none" xmlns="http://www.w3.org/2000/svg">
<g clip-path="url(#clip0_463_1276)">
<mask id="path-1-outside-1_463_1276" maskUnits="userSpaceOnUse" x="-0.149902" y="0.21875" width="68" height="68" fill="black">
<rect fill="white" x="-0.149902" y="0.21875" width="68" height="68"/>
<path d="M2.40461 28.574C1.99233 28.574 1.59693 28.739 1.3054 29.0327C1.01388 29.3264 0.850098 29.7247 0.850098 30.14C0.850098 30.5554 1.01388 30.9537 1.3054 31.2474C1.59693 31.5411 1.99233 31.7061 2.40461 31.7061H64.9287C65.341 31.7061 65.7364 31.5411 66.0279 31.2474C66.3195 30.9537 66.4833 30.5554 66.4833 30.14C66.4833 29.7247 66.3195 29.3264 66.0279 29.0327C65.7364 28.739 65.341 28.574 64.9287 28.574H2.40461ZM2.77303 36.7299C2.36075 36.7299 1.96535 36.8949 1.67382 37.1885C1.38229 37.4822 1.21852 37.8805 1.21852 38.2959C1.21852 38.7112 1.38229 39.1095 1.67382 39.4032C1.96535 39.6969 2.36075 39.8619 2.77303 39.8619H65.2956C65.7079 39.8619 66.1033 39.6969 66.3948 39.4032C66.6863 39.1095 66.8501 38.7112 66.8501 38.2959C66.8501 37.8805 66.6863 37.4822 66.3948 37.1885C66.1033 36.8949 65.7079 36.7299 65.2956 36.7299H2.77303ZM26.156 12.4816C26.0115 12.627 25.8969 12.7997 25.8186 12.9898C25.7404 13.18 25.7001 13.3837 25.7001 13.5895C25.7001 13.7953 25.7404 13.9991 25.8186 14.1892C25.8969 14.3793 26.0115 14.5521 26.156 14.6975L32.7518 21.3406C33.0434 21.6341 33.4387 21.7991 33.8509 21.7991C34.2631 21.7991 34.6584 21.6341 34.9499 21.3406L41.5442 14.6975C41.6889 14.552 41.8038 14.3792 41.8822 14.189C41.9605 13.9987 42.0009 13.7947 42.0009 13.5888C42.0009 13.3828 41.9605 13.1788 41.8822 12.9886C41.8038 12.7983 41.6889 12.6255 41.5442 12.48C41.2527 12.1864 40.8573 12.0215 40.4451 12.0215C40.0329 12.0215 39.6376 12.1864 39.3461 12.48L33.8509 18.019L28.3557 12.48C28.0642 12.1864 27.6688 12.0215 27.2566 12.0215C26.8444 12.0215 26.4491 12.1864 26.1576 12.48"/>
<path d="M33.8509 1.21875C33.4386 1.21875 33.0432 1.38374 32.7517 1.67743C32.4601 1.97111 32.2964 2.36944 32.2964 2.78477V20.2334C32.2964 20.6487 32.4603 21.0469 32.7518 21.3406C33.0434 21.6341 33.4387 21.7991 33.8509 21.7991C34.2631 21.7991 34.6584 21.6341 34.9499 21.3406C35.2415 21.0469 35.4054 20.6487 35.4054 20.2334V2.78477C35.4054 2.36944 35.2416 1.97111 34.9501 1.67743C34.6586 1.38374 34.2632 1.21875 33.8509 1.21875ZM33.8509 46.6365C33.4386 46.6366 33.0433 46.8017 32.7518 47.0954L26.1576 53.7384C26.0128 53.8839 25.898 54.0567 25.8196 54.247C25.7412 54.4372 25.7009 54.6412 25.7009 54.8472C25.7009 55.0532 25.7412 55.2571 25.8196 55.4474C25.898 55.6376 26.0128 55.8104 26.1576 55.9559C26.4491 56.2495 26.8444 56.4144 27.2566 56.4144C27.6688 56.4144 28.0642 56.2495 28.3557 55.9559L33.8509 50.4169L39.3461 55.9559C39.6376 56.2495 40.0329 56.4144 40.4451 56.4144C40.8573 56.4144 41.2527 56.2495 41.5442 55.9559C41.6889 55.8104 41.8038 55.6376 41.8822 55.4474C41.9605 55.2571 42.0009 55.0532 42.0009 54.8472C42.0009 54.6412 41.9605 54.4372 41.8822 54.247C41.8038 54.0567 41.6889 53.8839 41.5442 53.7384L34.9499 47.0954C34.6585 46.8017 34.2631 46.6366 33.8509 46.6365Z"/>
<path d="M33.8509 46.6365C33.4386 46.6366 33.0433 46.8017 32.7518 47.0954C32.4603 47.389 32.2964 47.7872 32.2964 48.2025V65.6512C32.2964 66.0665 32.4601 66.4648 32.7517 66.7585C33.0432 67.0522 33.4386 67.2172 33.8509 67.2172C34.2632 67.2172 34.6586 67.0522 34.9501 66.7585C35.2416 66.4648 35.4054 66.0665 35.4054 65.6512V48.2025C35.4054 47.7872 35.2415 47.389 34.9499 47.0954C34.6585 46.8017 34.2631 46.6366 33.8509 46.6365Z"/>
</mask>
<path d="M2.40461 28.574C1.99233 28.574 1.59693 28.739 1.3054 29.0327C1.01388 29.3264 0.850098 29.7247 0.850098 30.14C0.850098 30.5554 1.01388 30.9537 1.3054 31.2474C1.59693 31.5411 1.99233 31.7061 2.40461 31.7061H64.9287C65.341 31.7061 65.7364 31.5411 66.0279 31.2474C66.3195 30.9537 66.4833 30.5554 66.4833 30.14C66.4833 29.7247 66.3195 29.3264 66.0279 29.0327C65.7364 28.739 65.341 28.574 64.9287 28.574H2.40461ZM2.77303 36.7299C2.36075 36.7299 1.96535 36.8949 1.67382 37.1885C1.38229 37.4822 1.21852 37.8805 1.21852 38.2959C1.21852 38.7112 1.38229 39.1095 1.67382 39.4032C1.96535 39.6969 2.36075 39.8619 2.77303 39.8619H65.2956C65.7079 39.8619 66.1033 39.6969 66.3948 39.4032C66.6863 39.1095 66.8501 38.7112 66.8501 38.2959C66.8501 37.8805 66.6863 37.4822 66.3948 37.1885C66.1033 36.8949 65.7079 36.7299 65.2956 36.7299H2.77303ZM26.156 12.4816C26.0115 12.627 25.8969 12.7997 25.8186 12.9898C25.7404 13.18 25.7001 13.3837 25.7001 13.5895C25.7001 13.7953 25.7404 13.9991 25.8186 14.1892C25.8969 14.3793 26.0115 14.5521 26.156 14.6975L32.7518 21.3406C33.0434 21.6341 33.4387 21.7991 33.8509 21.7991C34.2631 21.7991 34.6584 21.6341 34.9499 21.3406L41.5442 14.6975C41.6889 14.552 41.8038 14.3792 41.8822 14.189C41.9605 13.9987 42.0009 13.7947 42.0009 13.5888C42.0009 13.3828 41.9605 13.1788 41.8822 12.9886C41.8038 12.7983 41.6889 12.6255 41.5442 12.48C41.2527 12.1864 40.8573 12.0215 40.4451 12.0215C40.0329 12.0215 39.6376 12.1864 39.3461 12.48L33.8509 18.019L28.3557 12.48C28.0642 12.1864 27.6688 12.0215 27.2566 12.0215C26.8444 12.0215 26.4491 12.1864 26.1576 12.48" fill="#656EEB"/>
<path d="M33.8509 1.21875C33.4386 1.21875 33.0432 1.38374 32.7517 1.67743C32.4601 1.97111 32.2964 2.36944 32.2964 2.78477V20.2334C32.2964 20.6487 32.4603 21.0469 32.7518 21.3406C33.0434 21.6341 33.4387 21.7991 33.8509 21.7991C34.2631 21.7991 34.6584 21.6341 34.9499 21.3406C35.2415 21.0469 35.4054 20.6487 35.4054 20.2334V2.78477C35.4054 2.36944 35.2416 1.97111 34.9501 1.67743C34.6586 1.38374 34.2632 1.21875 33.8509 1.21875ZM33.8509 46.6365C33.4386 46.6366 33.0433 46.8017 32.7518 47.0954L26.1576 53.7384C26.0128 53.8839 25.898 54.0567 25.8196 54.247C25.7412 54.4372 25.7009 54.6412 25.7009 54.8472C25.7009 55.0532 25.7412 55.2571 25.8196 55.4474C25.898 55.6376 26.0128 55.8104 26.1576 55.9559C26.4491 56.2495 26.8444 56.4144 27.2566 56.4144C27.6688 56.4144 28.0642 56.2495 28.3557 55.9559L33.8509 50.4169L39.3461 55.9559C39.6376 56.2495 40.0329 56.4144 40.4451 56.4144C40.8573 56.4144 41.2527 56.2495 41.5442 55.9559C41.6889 55.8104 41.8038 55.6376 41.8822 55.4474C41.9605 55.2571 42.0009 55.0532 42.0009 54.8472C42.0009 54.6412 41.9605 54.4372 41.8822 54.247C41.8038 54.0567 41.6889 53.8839 41.5442 53.7384L34.9499 47.0954C34.6585 46.8017 34.2631 46.6366 33.8509 46.6365Z" fill="#656EEB"/>
<path d="M33.8509 46.6365C33.4386 46.6366 33.0433 46.8017 32.7518 47.0954C32.4603 47.389 32.2964 47.7872 32.2964 48.2025V65.6512C32.2964 66.0665 32.4601 66.4648 32.7517 66.7585C33.0432 67.0522 33.4386 67.2172 33.8509 67.2172C34.2632 67.2172 34.6586 67.0522 34.9501 66.7585C35.2416 66.4648 35.4054 66.0665 35.4054 65.6512V48.2025C35.4054 47.7872 35.2415 47.389 34.9499 47.0954C34.6585 46.8017 34.2631 46.6366 33.8509 46.6365Z" fill="#656EEB"/>
<path d="M33.8509 46.6365L33.851 46.1745H33.8508L33.8509 46.6365ZM32.424 21.6661C32.8019 22.0467 33.3151 22.2611 33.8509 22.2611V21.3371C33.5623 21.3371 33.2848 21.2216 33.0797 21.015L32.424 21.6661ZM33.8509 22.2611C34.3867 22.2611 34.8999 22.0467 35.2778 21.6661L34.6221 21.015C34.4169 21.2216 34.1395 21.3371 33.8509 21.3371V22.2611ZM33.8508 46.1745C33.3149 46.1746 32.8017 46.3892 32.4239 46.7699L33.0798 47.4208C33.2849 47.2141 33.5624 47.0986 33.851 47.0985L33.8508 46.1745ZM35.2779 46.7699C34.9 46.3892 34.3869 46.1746 33.851 46.1745L33.8508 47.0985C34.1394 47.0986 34.4169 47.2141 34.622 47.4208L35.2779 46.7699ZM26.156 14.6975L26.8117 14.0465L26.8115 14.0462L26.156 14.6975ZM32.7518 21.3406L32.0961 21.9916L33.4076 20.6896L32.7518 21.3406ZM41.5442 14.6975L40.8892 14.0457L40.8884 14.0466L41.5442 14.6975ZM41.5442 12.48L40.8885 13.1311L40.8892 13.1318L41.5442 12.48ZM39.3461 12.48L38.6904 11.829L38.6901 11.8292L39.3461 12.48ZM33.8509 18.019L33.1949 18.6698L33.8509 19.331L34.5068 18.6698L33.8509 18.019ZM28.3557 12.48L29.0116 11.8292L29.0113 11.829L28.3557 12.48ZM32.7517 1.67743L33.4074 2.32838L32.7517 1.67743ZM26.1576 53.7384L26.8125 54.3902L26.8134 54.3894L26.1576 53.7384ZM26.1576 55.9559L26.8133 55.3049L26.8125 55.3041L26.1576 55.9559ZM28.3557 55.9559L29.0113 56.607L29.0116 56.6067L28.3557 55.9559ZM33.8509 50.4169L34.5068 49.7661L33.8509 49.1049L33.1949 49.7661L33.8509 50.4169ZM39.3461 55.9559L38.6901 56.6067L38.6904 56.607L39.3461 55.9559ZM41.5442 55.9559L40.8892 55.3041L40.8885 55.3049L41.5442 55.9559ZM41.5442 53.7384L40.8884 54.3894L40.8892 54.3902L41.5442 53.7384ZM32.7517 66.7585L33.4074 66.1076L32.7517 66.7585ZM2.40461 27.65C1.74507 27.65 1.11391 27.914 0.649631 28.3817L1.96117 29.6837C2.07995 29.564 2.23959 29.498 2.40461 29.498V27.65ZM0.649631 28.3817C0.185579 28.8492 -0.0739024 29.4818 -0.0739024 30.14H1.7741C1.7741 29.9676 1.84217 29.8035 1.96117 29.6837L0.649631 28.3817ZM-0.0739024 30.14C-0.0739024 30.7983 0.185586 31.4309 0.649631 31.8983L1.96117 30.5964C1.84216 30.4765 1.7741 30.3125 1.7741 30.14H-0.0739024ZM0.649631 31.8983C1.1139 32.366 1.74504 32.6301 2.40461 32.6301V30.7821C2.23962 30.7821 2.07997 30.7161 1.96117 30.5964L0.649631 31.8983ZM2.40461 32.6301H64.9287V30.7821H2.40461V32.6301ZM64.9287 32.6301C65.5883 32.6301 66.2194 32.366 66.6837 31.8983L65.3721 30.5964C65.2533 30.7161 65.0937 30.7821 64.9287 30.7821V32.6301ZM66.6837 31.8983C67.1477 31.4309 67.4072 30.7983 67.4072 30.14H65.5592C65.5592 30.3125 65.4912 30.4765 65.3721 30.5964L66.6837 31.8983ZM67.4072 30.14C67.4072 29.4818 67.1477 28.8492 66.6837 28.3817L65.3721 29.6837C65.4912 29.8036 65.5592 29.9676 65.5592 30.14H67.4072ZM66.6837 28.3817C66.2194 27.914 65.5883 27.65 64.9287 27.65V29.498C65.0937 29.498 65.2534 29.564 65.3721 29.6837L66.6837 28.3817ZM64.9287 27.65H2.40461V29.498H64.9287V27.65ZM2.77303 35.8059C2.11346 35.8059 1.48232 36.0699 1.01805 36.5376L2.32959 37.8395C2.44838 37.7198 2.60803 37.6539 2.77303 37.6539V35.8059ZM1.01805 36.5376C0.554005 37.0051 0.294517 37.6377 0.294517 38.2959H2.14252C2.14252 38.1234 2.21058 37.9594 2.32959 37.8395L1.01805 36.5376ZM0.294517 38.2959C0.294517 38.9541 0.553998 39.5867 1.01805 40.0542L2.32959 38.7523C2.21059 38.6324 2.14252 38.4683 2.14252 38.2959H0.294517ZM1.01805 40.0542C1.48233 40.5219 2.11348 40.7859 2.77303 40.7859V38.9379C2.60801 38.9379 2.44837 38.8719 2.32959 38.7523L1.01805 40.0542ZM2.77303 40.7859H65.2956V38.9379H2.77303V40.7859ZM65.2956 40.7859C65.9551 40.7859 66.5863 40.5219 67.0506 40.0542L65.739 38.7523C65.6203 38.8719 65.4606 38.9379 65.2956 38.9379V40.7859ZM67.0506 40.0542C67.5147 39.5867 67.7741 38.9541 67.7741 38.2959H65.9261C65.9261 38.4684 65.858 38.6324 65.739 38.7523L67.0506 40.0542ZM67.7741 38.2959C67.7741 37.6377 67.5147 37.0051 67.0506 36.5376L65.739 37.8395C65.858 37.9594 65.9261 38.1234 65.9261 38.2959H67.7741ZM67.0506 36.5376C66.5863 36.0699 65.9551 35.8059 65.2956 35.8059V37.6539C65.4606 37.6539 65.6203 37.7198 65.739 37.8395L67.0506 36.5376ZM65.2956 35.8059H2.77303V37.6539H65.2956V35.8059ZM25.5006 11.8303C25.2705 12.0618 25.0883 12.3364 24.9641 12.6382L26.6731 13.3415C26.7054 13.263 26.7525 13.1922 26.8115 13.1329L25.5006 11.8303ZM24.9641 12.6382C24.84 12.94 24.7761 13.2632 24.7761 13.5895H26.6241C26.6241 13.5042 26.6408 13.4199 26.6731 13.3415L24.9641 12.6382ZM24.7761 13.5895C24.7761 13.9158 24.84 14.2391 24.9641 14.5408L26.6731 13.8376C26.6408 13.7592 26.6241 13.6748 26.6241 13.5895H24.7761ZM24.9641 14.5408C25.0883 14.8426 25.2705 15.1172 25.5006 15.3488L26.8115 14.0462C26.7525 13.9869 26.7054 13.9161 26.6731 13.8376L24.9641 14.5408ZM25.5003 15.3485L32.0961 21.9916L33.4075 20.6895L26.8117 14.0465L25.5003 15.3485ZM35.6057 21.9915L42.2 15.3485L40.8884 14.0466L34.2942 20.6896L35.6057 21.9915ZM42.1991 15.3493C42.4296 15.1177 42.6121 14.8429 42.7365 14.5409L41.0278 13.837C40.9955 13.9156 40.9483 13.9864 40.8892 14.0457L42.1991 15.3493ZM42.7365 14.5409C42.8609 14.2388 42.9249 13.9153 42.9249 13.5888H41.0769C41.0769 13.6742 41.0601 13.7586 41.0278 13.837L42.7365 14.5409ZM42.9249 13.5888C42.9249 13.2622 42.8609 12.9387 42.7365 12.6366L41.0278 13.3405C41.0601 13.4189 41.0769 13.5033 41.0769 13.5888H42.9249ZM42.7365 12.6366C42.6121 12.3346 42.4296 12.0598 42.1991 11.8282L40.8892 13.1318C40.9483 13.1911 40.9955 13.262 41.0278 13.3405L42.7365 12.6366ZM42.1999 11.829C41.7356 11.3614 41.1046 11.0975 40.4451 11.0975V12.9455C40.6101 12.9455 40.7697 13.0114 40.8885 13.1311L42.1999 11.829ZM40.4451 11.0975C39.7857 11.0975 39.1547 11.3614 38.6904 11.829L40.0018 13.1311C40.1205 13.0114 40.2802 12.9455 40.4451 12.9455V11.0975ZM38.6901 11.8292L33.1949 17.3683L34.5068 18.6698L40.002 13.1308L38.6901 11.8292ZM34.5068 17.3683L29.0116 11.8292L27.6997 13.1308L33.1949 18.6698L34.5068 17.3683ZM29.0113 11.829C28.5471 11.3614 27.9161 11.0975 27.2566 11.0975V12.9455C27.4216 12.9455 27.5812 13.0114 27.7 13.1311L29.0113 11.829ZM27.2566 11.0975C26.5972 11.0975 25.9662 11.3614 25.5019 11.829L26.8133 13.1311C26.932 13.0114 27.0917 12.9455 27.2566 12.9455V11.0975ZM33.8509 0.29475C33.1913 0.29475 32.5602 0.558757 32.0959 1.02647L33.4074 2.32838C33.5262 2.20872 33.6859 2.14275 33.8509 2.14275V0.29475ZM32.0959 1.02647C31.6319 1.49396 31.3724 2.12657 31.3724 2.78477H33.2204C33.2204 2.61231 33.2884 2.44826 33.4074 2.32838L32.0959 1.02647ZM31.3724 2.78477V20.2334H33.2204V2.78477H31.3724ZM31.3724 20.2334C31.3724 20.8919 31.6323 21.5243 32.0961 21.9915L33.4076 20.6896C33.2884 20.5695 33.2204 20.4055 33.2204 20.2334H31.3724ZM35.6057 21.9915C36.0695 21.5243 36.3294 20.8919 36.3294 20.2334H34.4814C34.4814 20.4055 34.4134 20.5695 34.2942 20.6896L35.6057 21.9915ZM36.3294 20.2334V2.78477H34.4814V20.2334H36.3294ZM36.3294 2.78477C36.3294 2.12657 36.0699 1.49396 35.6059 1.02647L34.2943 2.32838C34.4133 2.44826 34.4814 2.61231 34.4814 2.78477H36.3294ZM35.6059 1.02647C35.1416 0.558757 34.5104 0.29475 33.8509 0.29475V2.14275C34.0159 2.14275 34.1755 2.20872 34.2943 2.32838L35.6059 1.02647ZM32.0961 46.4444L25.5018 53.0875L26.8134 54.3894L33.4076 47.7463L32.0961 46.4444ZM25.5026 53.0866C25.2721 53.3183 25.0896 53.593 24.9652 53.8951L26.674 54.5989C26.7063 54.5204 26.7535 54.4495 26.8125 54.3902L25.5026 53.0866ZM24.9652 53.8951C24.8408 54.1971 24.7769 54.5206 24.7769 54.8472H26.6249C26.6249 54.7617 26.6416 54.6774 26.674 54.5989L24.9652 53.8951ZM24.7769 54.8472C24.7769 55.1737 24.8408 55.4972 24.9652 55.7993L26.674 55.0955C26.6416 55.017 26.6249 54.9326 26.6249 54.8472H24.7769ZM24.9652 55.7993C25.0896 56.1013 25.2721 56.3761 25.5026 56.6077L26.8125 55.3041C26.7535 55.2448 26.7063 55.174 26.674 55.0955L24.9652 55.7993ZM25.5019 56.607C25.9662 57.0745 26.5972 57.3384 27.2566 57.3384V55.4904C27.0917 55.4904 26.932 55.4245 26.8133 55.3049L25.5019 56.607ZM27.2566 57.3384C27.9161 57.3384 28.5471 57.0745 29.0113 56.607L27.7 55.3049C27.5812 55.4245 27.4216 55.4904 27.2566 55.4904V57.3384ZM29.0116 56.6067L34.5068 51.0677L33.1949 49.7661L27.6997 55.3051L29.0116 56.6067ZM33.1949 51.0677L38.6901 56.6067L40.002 55.3051L34.5068 49.7661L33.1949 51.0677ZM38.6904 56.607C39.1547 57.0745 39.7857 57.3384 40.4451 57.3384V55.4904C40.2802 55.4904 40.1205 55.4245 40.0018 55.3049L38.6904 56.607ZM40.4451 57.3384C41.1046 57.3384 41.7356 57.0745 42.1999 56.607L40.8885 55.3049C40.7697 55.4245 40.6101 55.4904 40.4451 55.4904V57.3384ZM42.1991 56.6077C42.4296 56.3761 42.6121 56.1013 42.7365 55.7993L41.0278 55.0955C40.9955 55.174 40.9483 55.2448 40.8892 55.3041L42.1991 56.6077ZM42.7365 55.7993C42.8609 55.4972 42.9249 55.1737 42.9249 54.8472H41.0769C41.0769 54.9326 41.0601 55.017 41.0278 55.0955L42.7365 55.7993ZM42.9249 54.8472C42.9249 54.5206 42.8609 54.1971 42.7365 53.8951L41.0278 54.5989C41.0601 54.6774 41.0769 54.7617 41.0769 54.8472H42.9249ZM42.7365 53.8951C42.6121 53.593 42.4296 53.3183 42.1991 53.0866L40.8892 54.3902C40.9483 54.4495 40.9955 54.5204 41.0278 54.5989L42.7365 53.8951ZM42.2 53.0875L35.6057 46.4444L34.2942 47.7463L40.8884 54.3894L42.2 53.0875ZM32.0961 46.4444C31.6323 46.9116 31.3724 47.544 31.3724 48.2025H33.2204C33.2204 48.0304 33.2884 47.8665 33.4076 47.7463L32.0961 46.4444ZM31.3724 48.2025V65.6512H33.2204V48.2025H31.3724ZM31.3724 65.6512C31.3724 66.3093 31.6318 66.942 32.0959 67.4095L33.4074 66.1076C33.2884 65.9877 33.2204 65.8236 33.2204 65.6512H31.3724ZM32.0959 67.4095C32.5602 67.8772 33.1913 68.1412 33.8509 68.1412V66.2932C33.6859 66.2932 33.5262 66.2272 33.4074 66.1076L32.0959 67.4095ZM33.8509 68.1412C34.5104 68.1412 35.1416 67.8772 35.6059 67.4095L34.2943 66.1076C34.1755 66.2272 34.0159 66.2932 33.8509 66.2932V68.1412ZM35.6059 67.4095C36.0699 66.942 36.3294 66.3093 36.3294 65.6512H34.4814C34.4814 65.8236 34.4133 65.9877 34.2943 66.1076L35.6059 67.4095ZM36.3294 65.6512V48.2025H34.4814V65.6512H36.3294ZM36.3294 48.2025C36.3294 47.544 36.0695 46.9116 35.6057 46.4444L34.2942 47.7463C34.4134 47.8665 34.4814 48.0304 34.4814 48.2025H36.3294Z" fill="#656EEB" mask="url(#path-1-outside-1_463_1276)"/>
</g>
<defs>
<clipPath id="clip0_463_1276">
<rect width="66" height="66" fill="white" transform="translate(0.850098 0.289062)"/>
</clipPath>
</defs>
</svg>
